<?xml version="1.0" standalone="no"?>
<!DOCTYPE svg PUBLIC "-//W3C//DTD SVG 20010904//EN"
 "http://www.w3.org/TR/2001/REC-SVG-20010904/DTD/svg10.dtd">
<svg version="1.0" xmlns="http://www.w3.org/2000/svg"
 width="700.000000pt" height="700.000000pt" viewBox="0 0 700.000000 700.000000"
 preserveAspectRatio="xMidYMid meet">
<metadata>
Created by potrace 1.11, written by Peter Selinger 2001-2013
</metadata>
<g transform="translate(0.000000,700.000000) scale(0.100000,-0.100000)"
fill="#000000" stroke="none">
<path d="M1205 6984 c-630 -98 -1118 -602 -1195 -1234 -8 -70 -10 -683 -8
-2315 3 -2091 5 -2224 21 -2295 71 -298 196 -528 393 -724 221 -222 492 -357
811 -405 50 -8 749 -11 2280 -11 2368 0 2274 -2 2456 50 266 74 516 232 692
438 176 205 287 442 330 709 22 130 22 4474 1 4604 -50 301 -187 569 -402 783
-221 222 -492 357 -811 405 -50 8 -744 11 -2275 10 -1830 -1 -2218 -3 -2293
-15z m3928 -1173 c389 -73 748 -265 1008 -537 343 -362 518 -797 519 -1293 0
-364 -98 -701 -293 -1003 -302 -467 -777 -763 -1345 -839 -186 -24 -534 1
-701 51 -102 31 -241 83 -241 91 0 6 176 265 216 318 2 2 45 -8 96 -23 155
-44 251 -57 413 -57 149 1 273 16 385 47 416 117 739 383 933 769 270 539 172
1204 -243 1648 -210 224 -473 372 -780 438 -151 33 -439 33 -585 1 -140 -31
-213 -56 -340 -117 -213 -102 -386 -243 -535 -434 -294 -378 -379 -912 -219
-1368 54 -153 109 -253 253 -457 6 -9 -25 -62 -105 -176 l-114 -162 -43 48
c-23 27 -63 77 -88 111 l-46 63 -666 0 c-367 0 -685 5 -706 10 -109 25 -163
143 -106 235 45 73 6 69 777 75 682 5 692 5 720 26 15 11 39 36 51 55 20 28
23 44 20 92 -5 69 -27 103 -88 135 -44 22 -46 22 -538 22 -490 0 -495 0 -533
22 -43 24 -79 85 -79 133 0 44 36 108 72 130 31 19 57 20 423 25 371 5 392 6
425 26 105 62 109 202 7 278 -26 19 -45 21 -240 26 -198 5 -214 6 -248 28 -85
52 -93 179 -17 249 40 37 90 43 367 43 248 0 265 1 300 21 50 28 73 64 79 121
6 59 -16 112 -61 148 l-31 25 -436 5 c-416 5 -437 6 -470 26 -108 63 -108 214
0 271 l43 23 520 0 519 0 113 114 c203 204 451 358 726 450 118 39 274 74 389
86 124 14 401 4 523 -19z m-283 -611 l0 -110 -74 0 c-149 0 -306 -39 -463
-116 -262 -129 -464 -360 -556 -637 -46 -138 -60 -236 -54 -392 7 -179 36
-298 112 -450 64 -131 126 -215 232 -316 125 -119 248 -193 408 -247 125 -41
220 -56 360 -56 526 2 966 364 1081 889 25 118 24 332 -3 451 -77 331 -268
582 -574 752 l-56 31 -6 -577 c-5 -542 -6 -580 -25 -633 -45 -128 -140 -227
-272 -284 -36 -16 -67 -20 -165 -20 -118 0 -121 1 -195 37 -137 66 -226 189
-251 346 -40 242 133 476 380 515 89 13 191 -1 265 -37 29 -14 56 -26 59 -26
4 0 7 218 7 485 0 267 1 485 3 485 25 0 205 -58 275 -89 574 -249 895 -865
771 -1483 -100 -502 -498 -912 -996 -1028 -835 -195 -1633 437 -1633 1294 0
284 88 553 257 788 70 97 223 246 318 309 211 141 470 225 703 228 l92 1 0
-110z m-2821 -49 c92 -66 87 -204 -9 -264 -33 -21 -46 -22 -260 -22 -207 0
-228 2 -259 20 -46 27 -71 64 -78 113 -7 54 1 83 34 123 47 56 65 59 313 56
220 -2 226 -3 259 -26z m-309 -637 c58 -34 82 -79 78 -144 -5 -67 -27 -102
-84 -130 -37 -18 -60 -20 -299 -20 -239 0 -262 2 -299 20 -55 27 -79 63 -84
125 -6 79 39 148 110 165 18 5 148 8 288 7 237 -2 257 -3 290 -23z m581 -1
c101 -63 97 -212 -7 -270 -34 -20 -54 -23 -148 -23 -122 0 -174 16 -210 67
-26 35 -33 121 -13 159 38 74 95 96 238 91 86 -3 112 -7 140 -24z m-1201 -642
c74 -39 100 -140 57 -215 -42 -74 -51 -76 -403 -76 -306 0 -312 0 -344 23 -97
65 -97 199 0 264 32 23 38 23 344 23 284 0 314 -2 346 -19z m850 1 c108 -54
108 -220 0 -274 -30 -16 -67 -18 -280 -18 -213 0 -250 2 -280 18 -108 54 -108
220 0 274 30 16 67 18 280 18 213 0 250 -2 280 -18z m-364 -641 c107 -49 116
-200 15 -268 -44 -30 -105 -35 -337 -31 -222 3 -246 10 -291 78 -48 71 -18
181 61 220 38 18 60 20 276 20 207 0 240 -3 276 -19z m2324 -408 c79 -61 238
-158 286 -173 20 -7 33 -17 31 -24 -8 -21 -948 -1360 -975 -1389 -49 -53 -98
-72 -187 -72 -67 0 -89 4 -137 28 -160 78 -237 256 -169 387 13 25 237 350
499 723 l475 679 56 -54 c31 -30 85 -77 121 -105z"/>
</g>
</svg>
