<?xml version="1.0" encoding="UTF-8"?>
<!DOCTYPE svg PUBLIC "-//W3C//DTD SVG 1.1//EN" "http://www.w3.org/Graphics/SVG/1.1/DTD/svg11.dtd">
<!-- Creator: CorelDRAW X7 -->
<svg xmlns="http://www.w3.org/2000/svg" xml:space="preserve" width="1024px" height="256px" version="1.1" style="shape-rendering:geometricPrecision; text-rendering:geometricPrecision; image-rendering:optimizeQuality; fill-rule:evenodd; clip-rule:evenodd"
viewBox="0 0 102400 25600"
 xmlns:xlink="http://www.w3.org/1999/xlink">
 <defs>
  <style type="text/css">
   <![CDATA[
    .fil0 {fill:url(#id0);fill-rule:nonzero}
   ]]>
  </style>
  <linearGradient id="id0" gradientUnits="userSpaceOnUse" x1="12777.2" y1="-3451.42" x2="89622.5" y2="29051.4">
   <stop offset="0" style="stop-opacity:1; stop-color:#FBAD30"/>
   <stop offset="1" style="stop-opacity:1; stop-color:#E74F37"/>
  </linearGradient>
 </defs>
 <g id="Layer_x0020_1">
  <metadata id="CorelCorpID_0Corel-Layer"/>
  <path class="fil0" d="M39977 7124c280,-42 550,-63 809,-63 274,0 544,21 811,63l1735 4334 1788 -4334c218,-42 460,-63 726,-63 267,0 523,21 768,63l358 7563c-267,42 -519,63 -758,63 -238,0 -473,-21 -705,-63l-189 -5133 -1536 3555c-98,14 -200,26 -305,37 -105,11 -210,16 -315,16 -91,0 -182,-4 -274,-11 -91,-7 -186,-21 -284,-42l-1430 -3629 -147 5207c-225,42 -442,63 -653,63 -224,0 -456,-21 -694,-63l295 -7563zm-11330 -2939c3300,2310 4101,6857 1791,10156 -2310,3299 -6857,4101 -10156,1791 -3299,-2310 -4101,-6857 -1790,-10156 1463,-2091 3826,-3178 6199,-3107l0 1243c-1982,-73 -3960,830 -5182,2576 -1916,2737 -1252,6510 1485,8427 2737,1916 6510,1251 8427,-1486 1917,-2738 1251,-6510 -1486,-8427 -319,-223 -653,-412 -996,-566l-1 590 -8 5426c-37,454 -190,837 -405,1162 -297,450 -833,881 -1356,1033 -1695,492 -3387,-727 -3264,-2688 85,-599 348,-1162 769,-1556 393,-316 577,-466 1103,-602 286,-75 570,-107 897,-75 253,25 509,93 744,192 168,70 282,146 396,223l0 -4082 0 -563 0 -706c989,186 1955,580 2833,1195zm-24419 9966l2257 0c484,0 879,395 879,878l0 1c0,483 -395,878 -879,878l-2257 0c-484,0 -879,-395 -879,-878l0 -1c0,-483 395,-878 879,-878zm1962 -3516l2258 0c483,0 878,396 878,879l0 0c0,484 -395,879 -878,879l-2258 0c-483,0 -879,-395 -879,-879l0 0c0,-483 396,-879 879,-879zm-5311 0l2905 0c484,0 879,396 879,879l0 0c0,484 -395,879 -879,879l-2905 0c-484,0 -879,-395 -879,-879l0 0c0,-483 395,-879 879,-879zm20373 7057l-1 3 -2 3 -2 2 -4585 6547 0 1 -580 827c-2,4 -8,4 -12,1 -445,637 -1423,721 -2183,189 -760,-533 -1015,-1480 -569,-2116 -5,-3 -6,-8 -4,-12l580 -828 4585 -6547 3 -6 4 -4 3 -5 102 -145c769,828 1710,1494 2767,1940l-106 150zm7806 -14094c3623,2537 4503,7531 1967,11154 -2134,3047 -6005,4153 -9337,2919l-1274 1820c4344,1891 9561,533 12383,-3498 3223,-4602 2104,-10945 -2498,-14167 -4351,-3047 -10259,-2212 -13613,1778l-5525 0c-484,0 -879,396 -879,879l0 0c0,484 395,879 879,879l4333 0 -5 10c420,66 744,431 744,869l0 0c0,483 -396,879 -879,879l-399 0 -201 0 -2065 0c-483,0 -879,395 -879,879l0 0c0,483 396,879 879,879l1683 0 54 0c483,0 878,395 878,879l0 0c0,483 -395,878 -878,878l-118 0 -4 0 -19 0 -3592 0c-483,0 -879,396 -879,879l0 0c0,484 396,879 879,879l3592 0c87,0 170,-13 248,-36l9 36 1189 0c484,0 879,396 879,879l0 0c0,483 -395,879 -879,879l-623 0 0 0 -6358 0c-483,0 -878,395 -878,879l0 0c0,483 395,879 878,879l7321 0c300,438 637,855 1009,1248l1275 -1820c-2300,-2709 -2584,-6725 -450,-9772 2536,-3623 7530,-4503 11153,-1967zm-19588 3522l850 0c484,0 879,395 879,879l0 0c0,483 -395,879 -879,879l-850 0c-483,0 -878,-396 -878,-879l0 0c0,-484 395,-879 878,-879zm-4808 0l2525 0c483,0 879,395 879,879l0 0c0,483 -396,879 -879,879l-2525 0c-483,0 -879,-396 -879,-879l0 0c0,-484 396,-879 879,-879zm2140 -3516l1990 0c483,0 879,396 879,879l0 0c0,484 -396,879 -879,879l-1990 0c-483,0 -879,-395 -879,-879l0 0c0,-483 396,-879 879,-879zm90770 3394c119,-21 242,-35 368,-42 127,-7 249,-11 368,-11 120,0 243,4 369,11 126,7 252,21 378,42l0 2892c49,-63 114,-138 195,-226 81,-87 180,-172 300,-252 119,-81 263,-149 431,-205 168,-57 361,-85 578,-85 604,0 1061,169 1373,506 312,336 468,866 468,1588l0 3481c-126,21 -252,36 -378,43 -127,6 -249,10 -368,10 -120,0 -243,-4 -369,-10 -126,-7 -252,-22 -378,-43l0 -3082c0,-378 -60,-669 -179,-873 -119,-203 -323,-305 -610,-305 -120,0 -242,18 -369,53 -126,35 -240,103 -341,205 -102,102 -186,244 -253,426 -66,182 -100,421 -100,715l0 2861c-126,21 -252,36 -378,43 -126,6 -249,10 -369,10 -119,0 -240,-4 -362,-10 -123,-7 -248,-22 -374,-43l0 -7699zm-1551 6406c84,140 154,303 210,489 56,186 84,405 84,657 -280,112 -543,184 -789,216 -245,31 -501,47 -768,47 -455,0 -851,-72 -1188,-215 -337,-144 -616,-342 -836,-595 -221,-252 -388,-552 -500,-899 -112,-347 -168,-724 -168,-1131 0,-400 54,-771 163,-1115 108,-344 273,-645 494,-904 221,-260 496,-463 826,-611 330,-147 712,-221 1146,-221 155,0 297,4 427,11 129,7 254,21 373,42 119,21 238,49 358,84 119,35 252,81 399,137 0,161 -21,342 -63,542 -42,199 -108,391 -200,573 -210,-70 -394,-118 -552,-142 -158,-25 -338,-37 -542,-37 -434,0 -762,142 -983,426 -221,284 -332,689 -332,1215 0,568 120,982 358,1241 238,260 561,390 968,390 105,0 201,-2 289,-6 88,-3 174,-12 258,-26 84,-14 170,-35 258,-63 87,-28 191,-63 310,-105zm-7684 -4155c105,-21 205,-37 300,-47 95,-11 198,-16 310,-16 105,0 209,7 311,21 101,14 201,31 299,52 21,35 41,86 58,153 18,66 34,136 47,210 15,74 27,147 37,221 11,74 19,135 27,184 154,-217 343,-412 568,-584 224,-171 504,-257 841,-257 70,0 151,3 242,10 91,7 158,18 200,32 14,70 25,150 32,242 6,91 10,186 10,284 0,119 -5,249 -16,389 -10,140 -29,273 -58,400 -77,-14 -163,-21 -257,-21 -95,0 -153,0 -174,0 -119,0 -252,12 -400,36 -147,25 -287,90 -420,195 -134,105 -244,263 -332,473 -87,211 -131,505 -131,884l0 2587c-126,21 -253,36 -379,43 -126,6 -249,10 -368,10 -119,0 -240,-4 -363,-10 -123,-7 -250,-22 -384,-43l0 -5448zm-2777 2945c-85,-14 -176,-26 -274,-37 -98,-10 -186,-15 -263,-15 -343,0 -615,61 -815,184 -200,122 -300,320 -300,594 0,182 39,322 116,421 77,98 170,170 279,215 108,46 224,74 347,84 123,11 229,16 321,16 105,0 210,-9 315,-26 105,-18 197,-33 274,-47l0 -1389zm0 -1083c0,-169 -28,-305 -85,-411 -56,-105 -133,-187 -231,-247 -98,-60 -219,-100 -363,-121 -144,-21 -303,-31 -478,-31 -379,0 -782,73 -1210,221 -98,-183 -172,-355 -221,-516 -49,-161 -74,-354 -74,-579 309,-105 617,-182 926,-231 308,-49 596,-74 863,-74 729,0 1299,176 1709,527 410,350 615,911 615,1682l0 3156c-245,77 -543,151 -894,221 -350,70 -747,105 -1189,105 -357,0 -685,-31 -983,-95 -298,-63 -554,-168 -768,-315 -214,-147 -378,-337 -494,-568 -116,-231 -174,-515 -174,-852 0,-337 72,-619 216,-847 144,-228 329,-410 557,-547 228,-137 482,-235 763,-294 280,-60 561,-90 841,-90 204,0 428,11 674,32l0 -126zm-7687 1315c28,420 175,725 442,915 266,189 617,283 1051,283 239,0 483,-22 732,-68 249,-45 485,-110 710,-195 77,141 144,309 199,505 56,197 88,407 95,632 -547,210 -1164,315 -1851,315 -505,0 -938,-70 -1299,-210 -361,-141 -656,-335 -884,-584 -228,-249 -396,-545 -505,-889 -109,-343 -163,-719 -163,-1125 0,-400 56,-775 168,-1126 113,-350 279,-656 500,-915 221,-259 494,-465 821,-615 326,-151 706,-227 1141,-227 379,0 715,67 1010,200 294,133 545,316 752,547 207,232 363,507 468,826 105,319 158,661 158,1026 0,133 -6,264 -16,394 -11,130 -23,233 -37,311l-3492 0zm2135 -1042c-14,-337 -107,-608 -278,-815 -172,-207 -413,-311 -721,-311 -351,0 -617,99 -800,295 -182,196 -290,473 -326,831l2125 0zm-8172 -200c-239,-91 -453,-191 -642,-300 -190,-108 -351,-238 -484,-389 -133,-151 -237,-331 -310,-541 -74,-211 -111,-463 -111,-758 0,-358 62,-673 184,-947 123,-273 297,-503 521,-688 224,-186 494,-327 810,-421 316,-95 670,-142 1062,-142 358,0 693,31 1005,94 312,63 640,155 983,274 -42,407 -154,806 -336,1199 -105,-42 -212,-84 -321,-126 -109,-42 -225,-77 -347,-105 -123,-28 -261,-51 -416,-69 -154,-17 -329,-26 -526,-26 -119,0 -240,10 -362,32 -123,21 -234,59 -332,115 -98,56 -179,139 -242,247 -63,109 -95,251 -95,426 0,140 25,258 74,353 49,94 116,175 200,242 84,66 179,122 284,168 105,46 210,90 316,132l631 241c266,106 508,214 725,327 218,112 402,250 553,415 151,165 268,365 352,600 84,235 126,524 126,867 0,358 -65,684 -194,978 -130,295 -318,548 -563,758 -246,211 -549,375 -910,494 -361,120 -777,179 -1246,179 -232,0 -438,-7 -621,-21 -182,-14 -356,-37 -520,-68 -165,-32 -328,-72 -490,-121 -161,-49 -329,-109 -505,-179 21,-203 60,-416 116,-637 56,-220 123,-443 200,-667 294,119 571,208 831,268 259,59 536,89 831,89 442,0 789,-82 1041,-247 253,-165 379,-415 379,-752 0,-168 -30,-308 -89,-421 -60,-112 -137,-207 -232,-284 -95,-77 -201,-142 -321,-194 -119,-53 -242,-104 -368,-153l-641 -242zm-5416 2220c84,140 155,303 211,489 56,186 84,405 84,657 -280,112 -544,184 -789,216 -245,31 -501,47 -768,47 -456,0 -852,-72 -1188,-215 -337,-144 -616,-342 -837,-595 -220,-252 -387,-552 -499,-899 -113,-347 -169,-724 -169,-1131 0,-400 55,-771 164,-1115 108,-344 273,-645 494,-904 221,-260 496,-463 826,-611 329,-147 711,-221 1146,-221 154,0 296,4 426,11 130,7 254,21 374,42 119,21 238,49 357,84 119,35 252,81 400,137 0,161 -21,342 -63,542 -42,199 -109,391 -200,573 -210,-70 -394,-118 -552,-142 -158,-25 -339,-37 -542,-37 -435,0 -763,142 -984,426 -220,284 -331,689 -331,1215 0,568 119,982 358,1241 238,260 561,390 968,390 105,0 201,-2 289,-6 88,-3 173,-12 258,-26 84,-14 169,-35 257,-63 88,-28 191,-63 310,-105zm-6713 -3019l-704 0c-21,-91 -37,-188 -48,-290 -10,-101 -15,-198 -15,-289 0,-189 21,-375 63,-557l2167 0 0 5438c-253,42 -498,63 -737,63 -231,0 -473,-21 -726,-63l0 -4302zm-221 -2051c-42,-239 -62,-474 -62,-705 0,-225 20,-460 62,-705 120,-21 248,-37 384,-47 137,-11 262,-16 374,-16 119,0 249,5 389,16 140,10 270,26 389,47 21,119 35,237 42,353 7,115 11,233 11,352 0,112 -4,228 -11,347 -7,119 -21,238 -42,358 -119,21 -247,35 -384,42 -137,7 -264,10 -384,10 -112,0 -238,-3 -378,-10 -140,-7 -270,-21 -390,-42zm-3860 3986c-393,-112 -699,-279 -920,-499 -221,-221 -331,-553 -331,-994 0,-533 191,-951 573,-1252 382,-302 902,-453 1562,-453 273,0 543,25 810,74 266,49 536,123 810,221 -14,182 -49,372 -106,568 -56,196 -122,368 -200,516 -168,-71 -354,-132 -557,-185 -203,-52 -417,-78 -641,-78 -239,0 -425,36 -558,110 -133,73 -200,191 -200,352 0,155 47,263 142,326 95,64 230,123 405,179l600 179c196,56 373,125 531,205 158,81 293,181 405,300 112,119 200,266 263,442 63,175 94,389 94,641 0,260 -54,502 -163,726 -108,224 -266,419 -473,584 -207,165 -457,294 -752,389 -294,95 -628,142 -999,142 -169,0 -323,-5 -463,-16 -140,-10 -275,-28 -405,-52 -130,-25 -258,-55 -384,-90 -126,-35 -263,-80 -410,-136 14,-190 47,-381 100,-574 52,-193 121,-380 205,-563 231,92 450,160 657,206 207,45 423,68 647,68 98,0 205,-9 321,-26 116,-18 223,-49 321,-95 98,-45 180,-105 247,-179 67,-73 100,-170 100,-289 0,-168 -51,-289 -153,-363 -102,-74 -243,-138 -426,-195l-652 -189zm-7398 -3071c253,-42 502,-63 747,-63 245,0 495,21 747,63l0 2882c0,287 23,524 68,710 46,186 116,333 211,442 94,108 212,186 352,231 140,46 305,69 494,69 260,0 477,-25 653,-74l0 -4260c252,-42 497,-63 736,-63 245,0 494,21 747,63l0 5228c-225,77 -521,152 -889,226 -368,73 -752,110 -1152,110 -358,0 -701,-28 -1031,-84 -329,-56 -619,-175 -867,-358 -250,-182 -448,-449 -595,-799 -147,-351 -221,-817 -221,-1399l0 -2924z"/>
 </g>
</svg>
