<?xml version="1.0" encoding="UTF-8"?>
<!DOCTYPE svg PUBLIC "-//W3C//DTD SVG 1.1//EN" "http://www.w3.org/Graphics/SVG/1.1/DTD/svg11.dtd">
<!-- Creator: CorelDRAW X7 -->
<svg xmlns="http://www.w3.org/2000/svg" xml:space="preserve" width="1024px" height="250px" version="1.1" style="shape-rendering:geometricPrecision; text-rendering:geometricPrecision; image-rendering:optimizeQuality; fill-rule:evenodd; clip-rule:evenodd"
viewBox="0 0 102400 25000"
 xmlns:xlink="http://www.w3.org/1999/xlink">
 <defs>
  <style type="text/css">
   <![CDATA[
    .fil1 {fill:#FEFEFE;fill-rule:nonzero}
    .fil0 {fill:url(#id0)}
   ]]>
  </style>
  <linearGradient id="id0" gradientUnits="userSpaceOnUse" x1="84491.9" y1="26371.7" x2="17907.9" y2="-1371.73">
   <stop offset="0" style="stop-opacity:1; stop-color:#ED3237"/>
   <stop offset="1" style="stop-opacity:1; stop-color:#E7E52E"/>
  </linearGradient>
 </defs>
 <g id="Layer_x0020_1">
  <metadata id="CorelCorpID_0Corel-Layer"/>
  <rect class="fil0" width="102400" height="25000"/>
  <path class="fil1" d="M44600 9162c165,-25 324,-37 477,-37 161,0 319,12 476,37l1021 2549 1051 -2549c128,-25 270,-37 427,-37 157,0 307,12 451,37l211 4447c-157,25 -306,38 -446,38 -140,0 -278,-13 -414,-38l-112 -3018 -903 2091c-57,8 -117,15 -179,21 -62,6 -124,10 -185,10 -54,0 -108,-2 -161,-7 -54,-4 -110,-12 -167,-24l-842 -2134 -86 3061c-132,25 -260,38 -383,38 -133,0 -268,-13 -409,-38l173 -4447zm-6661 -1728c1940,1358 2411,4032 1053,5972 -1359,1940 -4032,2411 -5972,1053 -1940,-1358 -2411,-4032 -1053,-5972 861,-1229 2250,-1869 3646,-1827l0 731c-1166,-42 -2329,488 -3048,1515 -1127,1609 -736,3828 874,4955 1609,1127 3828,736 4955,-874 1127,-1609 735,-3828 -874,-4955 -188,-131 -384,-242 -586,-333l0 347 -5 3191c-22,267 -112,492 -238,683 -175,265 -490,518 -798,607 -996,290 -1991,-427 -1919,-1580 50,-352 205,-683 452,-915 232,-186 339,-274 649,-354 168,-44 335,-63 527,-44 149,15 300,55 438,113 99,41 165,86 233,131l0 -2400 0 -331 0 -415c581,109 1149,341 1666,702zm-14359 5860l1327 0c285,0 517,232 517,517l0 0c0,284 -232,517 -517,517l-1327 0c-285,0 -517,-233 -517,-517l0 0c0,-285 232,-517 517,-517zm1154 -2067l1327 0c285,0 517,232 517,517l0 0c0,284 -232,517 -517,517l-1327 0c-285,0 -517,-233 -517,-517l0 0c0,-285 232,-517 517,-517zm-3123 0l1708 0c284,0 517,232 517,517l0 0c0,284 -233,517 -517,517l-1708 0c-285,0 -517,-233 -517,-517l0 0c0,-285 232,-517 517,-517zm11979 4150l-1 1 -1 2 -1 1 -2696 3850 0 0 -341 487c-1,2 -4,2 -7,1 -262,374 -836,423 -1283,110 -447,-313 -597,-870 -335,-1244 -3,-2 -4,-5 -2,-7l341 -487 2695 -3850 3 -3 2 -3 2 -2 60 -86c452,487 1005,879 1626,1141l-62 89zm4590 -8288c2131,1492 2648,4428 1157,6558 -1255,1792 -3531,2443 -5491,1717l-749 1070c2554,1112 5622,314 7282,-2057 1895,-2706 1237,-6435 -1469,-8330 -2559,-1792 -6032,-1301 -8005,1046l-3249 0c-284,0 -516,232 -516,516l0 1c0,284 232,516 516,516l2549 0 -4 6c247,39 438,254 438,511l0 0c0,284 -233,517 -517,517l-352 0 0 0 -1215 0c-284,0 -516,232 -516,517l0 0c0,284 232,517 516,517l1034 0c279,7 504,236 504,516l0 0c0,284 -233,517 -517,517l-69 0 -2 0 -11 0 -2112 0c-285,0 -517,232 -517,517l0 0c0,284 232,517 517,517l2112 0c50,0 99,-8 146,-21l4 21 700 0c284,0 517,232 517,516l0 0c0,285 -233,517 -517,517l-367 0 0 0 -3738 0c-284,0 -517,233 -517,517l0 0c0,284 233,517 517,517l4305 0c176,257 374,503 593,734l749 -1070c-1352,-1593 -1519,-3955 -264,-5746 1492,-2131 4428,-2648 6558,-1157zm-11517 2071l499 0c285,0 517,232 517,517l0 0c0,284 -232,517 -517,517l-499 0c-285,0 -517,-233 -517,-517l0 0c0,-285 232,-517 517,-517zm-2828 0l1485 0c284,0 517,232 517,517l0 0c0,284 -233,517 -517,517l-1485 0c-284,0 -517,-233 -517,-517l0 0c0,-285 233,-517 517,-517zm1258 -2067l1170 0c285,0 517,232 517,516l0 1c0,284 -232,516 -517,516l-1170 0c-284,0 -516,-232 -516,-516l0 -1c0,-284 232,-516 516,-516zm53374 1995c70,-12 142,-21 217,-25 74,-4 146,-6 216,-6 70,0 143,2 217,6 74,4 148,13 222,25l0 1701c29,-37 67,-81 115,-133 47,-52 106,-101 176,-148 70,-48 155,-88 254,-121 99,-33 212,-50 340,-50 354,0 623,99 807,297 183,198 275,510 275,934l0 2048c-74,12 -148,20 -222,24 -75,4 -147,7 -217,7 -70,0 -142,-3 -216,-7 -75,-4 -149,-12 -223,-24l0 -1813c0,-222 -35,-393 -105,-513 -70,-120 -190,-179 -359,-179 -70,0 -142,10 -216,31 -75,20 -142,60 -202,120 -59,60 -109,143 -148,251 -39,107 -59,247 -59,420l0 1683c-74,12 -148,20 -222,24 -74,4 -147,7 -217,7 -70,0 -141,-3 -213,-7 -72,-4 -146,-12 -220,-24l0 -4528zm-912 3767c49,82 91,178 124,287 33,110 49,239 49,387 -165,66 -319,108 -464,127 -144,18 -295,28 -451,28 -268,0 -501,-43 -699,-127 -198,-85 -362,-201 -492,-350 -130,-148 -228,-324 -294,-528 -66,-205 -99,-426 -99,-665 0,-235 32,-454 96,-656 64,-202 161,-379 291,-532 130,-152 292,-272 485,-359 194,-86 419,-130 675,-130 90,0 174,3 250,7 76,4 150,12 220,24 70,13 140,29 210,50 70,20 148,47 235,80 0,95 -12,201 -37,319 -25,117 -64,230 -118,337 -123,-41 -231,-69 -324,-84 -93,-14 -199,-21 -319,-21 -255,0 -448,83 -578,250 -130,167 -195,405 -195,715 0,334 70,577 210,730 141,152 330,228 569,228 62,0 119,-1 170,-3 52,-2 103,-7 152,-15 49,-8 100,-21 152,-37 51,-17 112,-37 182,-62zm-4518 -2443c62,-13 121,-22 176,-28 56,-6 117,-9 183,-9 62,0 122,4 182,12 60,8 119,19 176,31 13,20 24,50 34,90 11,39 20,80 28,123 9,44 16,87 22,130 6,43 11,80 15,108 91,-127 202,-242 334,-343 132,-101 297,-151 495,-151 41,0 89,2 142,6 54,4 93,10 118,18 8,42 14,89 19,143 4,53 6,109 6,167 0,70 -3,146 -10,228 -6,83 -17,161 -34,235 -45,-8 -95,-12 -151,-12 -56,0 -90,0 -102,0 -70,0 -149,7 -235,22 -87,14 -169,52 -248,114 -78,62 -143,155 -194,278 -52,124 -78,297 -78,520l0 1522c-74,12 -148,20 -222,24 -75,4 -147,7 -217,7 -70,0 -141,-3 -213,-7 -73,-4 -148,-12 -226,-24l0 -3204zm-1633 1732c-50,-9 -103,-16 -161,-22 -58,-6 -109,-9 -155,-9 -202,0 -362,36 -479,108 -118,72 -176,188 -176,349 0,107 22,190 68,248 45,57 100,100 164,127 63,26 132,43 204,49 72,6 135,9 188,9 62,0 124,-5 186,-15 62,-11 115,-20 161,-28l0 -816zm0 -638c0,-99 -17,-179 -50,-241 -33,-62 -78,-110 -136,-145 -58,-35 -129,-59 -213,-71 -85,-13 -179,-19 -282,-19 -222,0 -460,43 -711,130 -58,-107 -101,-208 -130,-303 -29,-95 -43,-208 -43,-340 181,-62 363,-107 544,-136 182,-29 351,-44 507,-44 429,0 764,104 1005,310 242,206 362,536 362,989l0 1856c-144,45 -319,89 -525,130 -207,41 -440,62 -700,62 -210,0 -402,-19 -578,-56 -175,-37 -326,-99 -451,-186 -126,-86 -223,-197 -291,-334 -68,-136 -102,-303 -102,-501 0,-198 42,-363 127,-498 84,-134 194,-241 328,-321 134,-81 283,-138 448,-173 165,-35 330,-53 495,-53 119,0 251,6 396,19l0 -75zm-4520 774c16,247 103,426 260,538 156,111 363,167 618,167 140,0 284,-14 430,-40 146,-27 286,-65 417,-115 46,83 85,182 118,297 33,115 52,239 56,371 -322,124 -685,186 -1089,186 -297,0 -551,-42 -764,-124 -212,-83 -385,-197 -519,-343 -134,-147 -233,-321 -297,-523 -64,-202 -96,-423 -96,-662 0,-235 33,-455 99,-662 66,-206 164,-385 294,-538 130,-152 290,-273 482,-362 192,-88 415,-133 671,-133 223,0 421,40 594,118 173,78 321,186 442,322 122,136 214,297 275,485 62,188 93,389 93,603 0,78 -3,156 -9,232 -6,77 -13,137 -22,183l-2053 0zm1255 -613c-8,-198 -62,-357 -163,-479 -101,-122 -243,-183 -424,-183 -206,0 -363,58 -470,174 -108,115 -171,278 -192,488l1249 0zm-4805 -117c-140,-54 -266,-113 -378,-177 -111,-63 -206,-140 -284,-228 -78,-89 -139,-195 -182,-319 -44,-124 -65,-272 -65,-445 0,-211 36,-396 108,-557 72,-161 174,-296 306,-405 132,-109 291,-192 476,-247 186,-56 394,-84 625,-84 210,0 407,19 591,56 183,37 376,90 578,160 -25,240 -91,475 -198,706 -62,-25 -125,-50 -189,-75 -64,-24 -132,-45 -204,-61 -72,-17 -153,-30 -244,-41 -91,-10 -194,-15 -309,-15 -71,0 -141,6 -214,19 -72,12 -137,35 -195,67 -57,34 -105,82 -142,146 -37,64 -55,147 -55,250 0,83 14,152 43,208 29,55 68,103 117,142 50,39 105,72 167,99 62,27 124,52 186,77l371 142c157,62 299,126 427,192 128,66 236,147 325,244 88,97 157,215 207,353 49,138 74,308 74,510 0,211 -38,402 -114,575 -77,174 -187,322 -331,446 -145,124 -323,220 -536,290 -212,71 -456,106 -732,106 -136,0 -258,-4 -365,-13 -108,-8 -210,-21 -306,-40 -97,-18 -193,-42 -288,-71 -95,-29 -194,-64 -297,-105 12,-120 35,-245 68,-374 33,-130 72,-261 118,-393 173,70 336,122 488,158 153,35 316,52 489,52 260,0 464,-48 612,-145 149,-97 223,-245 223,-442 0,-99 -18,-182 -53,-248 -35,-66 -80,-121 -136,-167 -55,-45 -118,-83 -189,-114 -69,-31 -142,-61 -216,-90l-377 -142zm-3184 1305c49,82 91,178 123,287 33,110 50,239 50,387 -165,66 -320,108 -464,127 -144,18 -295,28 -452,28 -268,0 -500,-43 -698,-127 -198,-85 -362,-201 -492,-350 -130,-148 -228,-324 -294,-528 -66,-205 -99,-426 -99,-665 0,-235 32,-454 96,-656 64,-202 161,-379 291,-532 130,-152 291,-272 485,-359 194,-86 419,-130 674,-130 91,0 175,3 251,7 76,4 149,12 219,24 71,13 141,29 211,50 70,20 148,47 235,80 0,95 -13,201 -37,319 -25,117 -64,230 -118,337 -124,-41 -232,-69 -325,-84 -92,-14 -199,-21 -318,-21 -256,0 -449,83 -578,250 -130,167 -195,405 -195,715 0,334 70,577 210,730 140,152 330,228 569,228 62,0 119,-1 170,-3 52,-2 102,-7 152,-15 49,-8 100,-21 151,-37 52,-17 113,-37 183,-62zm-3948 -1775l-414 0c-12,-54 -22,-111 -28,-170 -6,-60 -9,-117 -9,-171 0,-111 12,-220 37,-327l1274 0 0 3197c-148,25 -293,38 -433,38 -136,0 -278,-13 -427,-38l0 -2529zm-130 -1206c-24,-141 -37,-279 -37,-415 0,-132 13,-270 37,-414 71,-13 146,-22 226,-28 81,-6 154,-9 220,-9 70,0 146,3 229,9 82,6 158,15 228,28 13,70 21,139 25,207 4,68 6,137 6,207 0,66 -2,134 -6,204 -4,70 -12,141 -25,211 -70,12 -145,20 -225,24 -81,4 -156,6 -226,6 -66,0 -140,-2 -223,-6 -82,-4 -158,-12 -229,-24zm-2269 2344c-231,-66 -412,-164 -542,-294 -130,-130 -194,-325 -194,-585 0,-313 112,-558 337,-736 224,-177 530,-266 918,-266 161,0 320,15 476,44 157,29 316,72 477,130 -9,107 -29,218 -62,334 -33,115 -72,216 -118,303 -99,-42 -208,-78 -327,-109 -120,-30 -246,-46 -378,-46 -140,0 -249,22 -328,65 -78,43 -117,112 -117,207 0,91 28,155 83,192 56,37 135,72 238,105l353 105c116,33 220,74 312,121 93,47 173,106 239,176 65,70 117,157 154,260 37,103 56,229 56,377 0,153 -32,295 -96,427 -64,132 -157,246 -278,343 -122,97 -269,173 -443,229 -173,56 -369,84 -587,84 -99,0 -190,-3 -272,-10 -83,-6 -162,-16 -239,-31 -76,-14 -151,-32 -225,-52 -75,-21 -155,-48 -242,-81 9,-111 28,-223 59,-337 31,-113 71,-223 121,-331 136,54 265,94 386,121 122,27 249,40 381,40 58,0 120,-5 189,-15 68,-11 130,-29 188,-56 58,-27 106,-62 146,-105 39,-43 58,-100 58,-170 0,-99 -30,-170 -90,-213 -59,-44 -143,-82 -250,-115l-383 -111zm-4350 -1806c148,-25 294,-37 439,-37 144,0 290,12 439,37l0 1695c0,169 13,308 40,417 27,109 68,196 124,260 55,64 124,109 207,136 82,27 179,40 291,40 152,0 280,-14 383,-43l0 -2505c149,-25 293,-37 433,-37 144,0 291,12 439,37l0 3074c-132,45 -306,89 -523,133 -216,43 -442,65 -677,65 -210,0 -412,-17 -606,-50 -194,-33 -364,-103 -510,-210 -147,-107 -263,-264 -350,-470 -86,-206 -129,-481 -129,-823l0 -1719z"/>
 </g>
</svg>
