<?xml version="1.0" encoding="UTF-8"?>
<!DOCTYPE svg PUBLIC "-//W3C//DTD SVG 1.1//EN" "http://www.w3.org/Graphics/SVG/1.1/DTD/svg11.dtd">
<!-- Creator: CorelDRAW X7 -->
<svg xmlns="http://www.w3.org/2000/svg" xml:space="preserve" width="144px" height="107px" version="1.1" style="shape-rendering:geometricPrecision; text-rendering:geometricPrecision; image-rendering:optimizeQuality; fill-rule:evenodd; clip-rule:evenodd"
viewBox="0 0 14400 10700"
 xmlns:xlink="http://www.w3.org/1999/xlink">
 <defs>
  <style type="text/css">
   <![CDATA[
    .fil0 {fill:url(#id0)}
   ]]>
  </style>
  <linearGradient id="id0" gradientUnits="userSpaceOnUse" x1="5125.98" y1="2610.47" x2="9273.9" y2="8089.25">
   <stop offset="0" style="stop-opacity:1; stop-color:#FEBF2C"/>
   <stop offset="1" style="stop-opacity:1; stop-color:#E64438"/>
  </linearGradient>
 </defs>
 <g id="Layer_x0020_1">
  <metadata id="CorelCorpID_0Corel-Layer"/>
  <path class="fil0" d="M4641 1529l2296 0c1394,-1659 3849,-2006 5657,-739 1912,1338 2377,3974 1038,5887 -1173,1675 -3341,2239 -5146,1453l529 -756c1385,513 2994,53 3881,-1213 1054,-1506 688,-3581 -818,-4635 -1505,-1054 -3580,-688 -4634,817 -887,1266 -769,2936 186,4061l-529 756c-155,-163 -295,-336 -420,-518l-3042 0c-201,0 -365,-165 -365,-366l0 0c0,-201 164,-365 365,-365l2642 0 259 0c201,0 365,-164 365,-365l0 0c0,-201 -164,-365 -365,-365l-494 0 -3 -15c-33,10 -68,15 -103,15l-1493 0c-201,0 -365,-165 -365,-365l0 0c0,-201 164,-366 365,-366l1493 0 7 1 0 -1 51 0c201,0 365,-164 365,-365l0 0c0,-201 -164,-365 -365,-365l-23 0 -699 0c-201,0 -365,-164 -365,-365l0 0c0,-201 164,-366 365,-366l858 0 84 0 166 0c200,0 365,-164 365,-365l0 0c0,-182 -135,-334 -310,-361l3 -4 -1801 0c-201,0 -365,-164 -365,-365l0 0c0,-201 164,-365 365,-365zm7267 241c1371,960 1704,2849 744,4220 -960,1371 -2850,1704 -4221,744 -1371,-960 -1704,-2849 -744,-4220 609,-869 1590,-1321 2577,-1291l0 516c-824,-30 -1646,345 -2154,1071 -796,1137 -520,2705 617,3502 1138,796 2705,520 3502,-618 797,-1137 520,-2705 -617,-3501 -133,-93 -272,-172 -414,-236l-1 245 -3 2255c-15,189 -79,348 -168,483 -124,187 -347,366 -564,429 -704,205 -1407,-302 -1356,-1117 35,-248 145,-483 319,-646 164,-132 240,-194 459,-250 119,-32 237,-45 372,-32 106,11 212,39 310,80 70,29 116,61 164,93l0 -1696 0 -234 0 -294c411,77 813,241 1178,497zm-10148 4141l938 0c201,0 365,164 365,365l0 0c0,201 -164,366 -365,366l-938 0c-201,0 -365,-165 -365,-366l0 0c0,-201 164,-365 365,-365zm815 -1461l939 0c201,0 365,165 365,366l0 0c0,200 -164,365 -365,365l-939 0c-200,0 -365,-165 -365,-365l0 0c0,-201 165,-366 365,-366zm-2207 0l1208 0c201,0 365,165 365,366l0 0c0,200 -164,365 -365,365l-1208 0c-201,0 -365,-165 -365,-365l0 0c0,-201 164,-366 365,-366zm8467 2933l-1 1 -1 1 -1 1 -1905 2721 0 0 -241 344c-1,1 -3,2 -5,0 -185,265 -591,300 -907,79 -316,-222 -422,-615 -237,-880 -2,-1 -2,-3 -1,-5l241 -344 1905 -2720 2 -3 1 -2 1 -2 43 -60c319,344 710,621 1149,806l-43 63zm-4896 -4394l353 0c201,0 365,165 365,366l0 0c0,201 -164,365 -365,365l-353 0c-201,0 -365,-164 -365,-365l0 0c0,-201 164,-366 365,-366zm-1999 0l1050 0c201,0 365,165 365,366l0 0c0,201 -164,365 -365,365l-1050 0c-201,0 -365,-164 -365,-365l0 0c0,-201 164,-366 365,-366zm890 -1460l827 0c200,0 365,164 365,365l0 0c0,201 -165,365 -365,365l-827 0c-201,0 -366,-164 -366,-365l0 0c0,-201 165,-365 366,-365z"/>
 </g>
</svg>
