<?xml version="1.0" encoding="UTF-8"?>
<!DOCTYPE svg PUBLIC "-//W3C//DTD SVG 1.1//EN" "http://www.w3.org/Graphics/SVG/1.1/DTD/svg11.dtd">
<!-- Creator: CorelDRAW X7 -->
<svg xmlns="http://www.w3.org/2000/svg" xml:space="preserve" width="144px" height="144px" version="1.1" style="shape-rendering:geometricPrecision; text-rendering:geometricPrecision; image-rendering:optimizeQuality; fill-rule:evenodd; clip-rule:evenodd"
viewBox="0 0 14400 14400"
 xmlns:xlink="http://www.w3.org/1999/xlink">
 <defs>
  <style type="text/css">
   <![CDATA[
    .fil1 {fill:#FEFEFE}
    .fil0 {fill:url(#id0)}
   ]]>
  </style>
  <linearGradient id="id0" gradientUnits="userSpaceOnUse" x1="13228.1" y1="11560.2" x2="1172.03" y2="2839.65">
   <stop offset="0" style="stop-opacity:1; stop-color:#EE3B37"/>
   <stop offset="1" style="stop-opacity:1; stop-color:#FBD925"/>
  </linearGradient>
 </defs>
 <g id="Layer_x0020_1">
  <metadata id="CorelCorpID_0Corel-Layer"/>
  <g id="_273684824">
   <rect class="fil0" width="14400" height="14400" rx="2922" ry="2922"/>
   <path class="fil1" d="M4882 3739l2080 0c1262,-1502 3486,-1816 5124,-670 1732,1213 2153,3601 940,5333 -1062,1517 -3026,2028 -4661,1317l479 -685c1255,464 2712,48 3515,-1099 955,-1364 623,-3244 -740,-4199 -1364,-954 -3244,-623 -4198,741 -804,1147 -697,2659 169,3678l-480 685c-140,-148 -267,-305 -380,-470l-2755 0c-182,0 -331,-149 -331,-330l0 -1c0,-182 149,-330 331,-330l2393 0 0 -1 234 0c182,0 331,-148 331,-330l0 0c0,-182 -149,-331 -331,-331l-447 0 -3 -14c-30,9 -61,14 -94,14l-1352 0c-182,0 -331,-149 -331,-331l0 0c0,-182 149,-331 331,-331l1352 0 7 0 0 0 46 0c182,0 331,-149 331,-331l0 0c0,-181 -149,-330 -331,-330l-20 0 -634 0c-182,0 -330,-149 -330,-331l0 0c0,-182 148,-331 330,-331l778 0 75 0 150 0c182,0 331,-149 331,-331l0 0c0,-165 -122,-302 -280,-327l2 -3 -1631 0c-182,0 -331,-149 -331,-331l0 0c0,-182 149,-331 331,-331zm6582 218c1242,870 1544,2581 674,3823 -869,1242 -2581,1544 -3823,674 -1241,-869 -1543,-2581 -674,-3823 551,-787 1441,-1196 2334,-1169l0 468c-746,-27 -1491,312 -1951,970 -721,1030 -471,2450 559,3171 1031,722 2451,471 3172,-559 722,-1030 471,-2450 -559,-3172 -120,-84 -246,-155 -375,-213l0 222 -3 2043c-14,170 -72,315 -153,437 -112,169 -313,332 -510,389 -638,185 -1275,-274 -1229,-1012 32,-225 131,-438 290,-586 148,-119 217,-175 415,-226 108,-29 215,-40 337,-29 96,10 192,36 281,73 63,26 105,55 149,84l0 -1537 0 -212 0 -265c372,69 736,218 1066,449zm-9192 3751l850 0c182,0 331,149 331,331l0 0c0,182 -149,331 -331,331l-850 0c-182,0 -330,-149 -330,-331l0 0c0,-182 148,-331 330,-331zm739 -1323l850 0c182,0 331,149 331,331l0 0c0,182 -149,331 -331,331l-850 0c-182,0 -331,-149 -331,-331l0 0c0,-182 149,-331 331,-331zm-1999 0l1094 0c181,0 330,149 330,331l0 0c0,182 -149,331 -330,331l-1094 0c-182,0 -331,-149 -331,-331l0 0c0,-182 149,-331 331,-331zm7669 2657l-1 1 -1 1 0 0 -1726 2465 0 0 -218 312c-1,1 -3,1 -5,0 -168,240 -535,271 -822,71 -286,-200 -382,-557 -214,-797 -2,-1 -2,-3 -1,-4l218 -312 1726 -2464 1 -2 1 -2 2 -2 38 -54c289,312 643,562 1041,730l-39 57zm-4435 -3980l320 0c182,0 330,149 330,331l0 0c0,182 -148,331 -330,331l-320 0c-182,0 -331,-149 -331,-331l0 0c0,-182 149,-331 331,-331zm-1810 0l950 0c182,0 331,149 331,331l0 0c0,182 -149,331 -331,331l-950 0c-182,0 -331,-149 -331,-331l0 0c0,-182 149,-331 331,-331zm805 -1323l749 0c182,0 331,149 331,331l0 0c0,182 -149,331 -331,331l-749 0c-182,0 -330,-149 -330,-331l0 0c0,-182 148,-331 330,-331z"/>
  </g>
 </g>
</svg>
