<?xml version="1.0" encoding="UTF-8"?>
<!DOCTYPE svg PUBLIC "-//W3C//DTD SVG 1.1//EN" "http://www.w3.org/Graphics/SVG/1.1/DTD/svg11.dtd">
<!-- Creator: CorelDRAW X7 -->
<svg xmlns="http://www.w3.org/2000/svg" xml:space="preserve" width="16px" height="16px" version="1.1" style="shape-rendering:geometricPrecision; text-rendering:geometricPrecision; image-rendering:optimizeQuality; fill-rule:evenodd; clip-rule:evenodd"
viewBox="0 0 1600 1600"
 xmlns:xlink="http://www.w3.org/1999/xlink">
 <defs>
  <style type="text/css">
   <![CDATA[
    .fil1 {fill:#FEFEFE}
    .fil0 {fill:url(#id0)}
   ]]>
  </style>
  <linearGradient id="id0" gradientUnits="userSpaceOnUse" x1="1469.72" y1="1284.51" x2="130.046" y2="315.488">
   <stop offset="0" style="stop-opacity:1; stop-color:#EE3B37"/>
   <stop offset="1" style="stop-opacity:1; stop-color:#FBD925"/>
  </linearGradient>
 </defs>
 <g id="Layer_x0020_1">
  <metadata id="CorelCorpID_0Corel-Layer"/>
  <g id="_281623704">
   <rect class="fil0" width="1600" height="1600" rx="325" ry="325"/>
   <path class="fil1" d="M542 415l231 0c141,-167 388,-201 570,-74 192,135 239,400 104,593 -118,168 -336,225 -518,146l54 -76c139,51 301,5 390,-122 106,-152 69,-361 -82,-467 -152,-106 -360,-69 -467,82 -89,128 -77,296 19,409l-53 76c-16,-16 -30,-34 -42,-52l-306 0c-21,0 -37,-16 -37,-37l0 0c0,-20 16,-37 37,-37l265 0 27 0 1 0c20,-1 35,-17 35,-36l0 0c0,-20 -16,-37 -36,-37l-50 0 -1 -2c-3,2 -6,2 -10,2l-150 0c-21,0 -37,-16 -37,-37l0 0c0,-20 16,-36 37,-36l150 0 1 0 1 0 4 0c20,0 37,-17 37,-37l0 0c0,-20 -16,-36 -35,-37l-2 0 -2 0 -71 0c-20,0 -37,-16 -37,-37l0 0c0,-20 17,-37 37,-37l87 0 8 0 2 0 15 0c20,0 36,-16 36,-36l0 0c0,-19 -13,-34 -31,-37l1 0 -182 0c-20,0 -36,-17 -36,-37l0 0c0,-20 16,-37 36,-37zm732 25c138,96 171,287 75,424 -97,138 -287,172 -425,75 -138,-96 -172,-286 -75,-424 61,-88 160,-133 259,-130l0 52c-83,-3 -165,34 -217,107 -80,115 -52,273 63,353 114,80 272,52 352,-62 80,-115 52,-273 -62,-353 -13,-9 -27,-17 -42,-23l0 24 0 227c-2,19 -8,35 -17,49 -12,19 -35,37 -57,43 -71,21 -141,-30 -136,-112 3,-25 14,-49 32,-66 16,-13 24,-19 46,-25 12,-3 24,-4 37,-3 11,1 22,4 32,8 7,3 11,6 16,9l0 -170 0 -24 0 -29c42,7 82,24 119,50zm-1022 416l95 0c20,0 37,17 37,37l0 0c0,21 -17,37 -37,37l-95 0c-20,0 -36,-16 -36,-37l0 0c0,-20 16,-37 36,-37zm82 -146l95 0c20,0 37,16 37,36l0 0c0,21 -17,37 -37,37l-95 0c-20,0 -36,-16 -36,-37l0 0c0,-20 16,-36 36,-36zm-222 0l122 0c20,0 36,16 36,36l0 0c0,21 -16,37 -36,37l-122 0c-20,0 -37,-16 -37,-37l0 0c0,-20 17,-36 37,-36zm852 295l0 0 0 0 0 0 -192 274 0 0 -24 34c0,1 0,1 0,0 -19,27 -60,31 -92,8 -31,-22 -42,-62 -23,-88 -1,0 -1,0 -1,-1l25 -34 191 -274 1 0 0 -1 0 0 4 -6c32,35 72,63 116,81l-5 7zm-492 -443l35 0c21,0 37,17 37,37l0 0c0,21 -16,37 -37,37l-35 0c-21,0 -37,-16 -37,-37l0 0c0,-20 16,-37 37,-37zm-202 0l106 0c20,0 37,17 37,37l0 0c0,21 -17,37 -37,37l-106 0c-20,0 -36,-16 -36,-37l0 0c0,-20 16,-37 36,-37zm90 -147l83 0c21,0 37,17 37,37l0 0c0,20 -16,37 -37,37l-83 0c-20,0 -37,-17 -37,-37l0 0c0,-20 17,-37 37,-37z"/>
  </g>
 </g>
</svg>
