<?xml version="1.0" encoding="UTF-8"?>
<!DOCTYPE svg PUBLIC "-//W3C//DTD SVG 1.1//EN" "http://www.w3.org/Graphics/SVG/1.1/DTD/svg11.dtd">
<!-- Creator: CorelDRAW X7 -->
<svg xmlns="http://www.w3.org/2000/svg" xml:space="preserve" width="256px" height="189px" version="1.1" style="shape-rendering:geometricPrecision; text-rendering:geometricPrecision; image-rendering:optimizeQuality; fill-rule:evenodd; clip-rule:evenodd"
viewBox="0 0 25600 18900"
 xmlns:xlink="http://www.w3.org/1999/xlink">
 <defs>
  <style type="text/css">
   <![CDATA[
    .fil0 {fill:url(#id0)}
   ]]>
  </style>
  <linearGradient id="id0" gradientUnits="userSpaceOnUse" x1="9112.94" y1="4579.86" x2="16486.8" y2="14320">
   <stop offset="0" style="stop-opacity:1; stop-color:#FEBF2C"/>
   <stop offset="1" style="stop-opacity:1; stop-color:#E64438"/>
  </linearGradient>
 </defs>
 <g id="Layer_x0020_1">
  <metadata id="CorelCorpID_0Corel-Layer"/>
  <path class="fil0" d="M8251 2657l4081 0c2478,-2948 6843,-3565 10057,-1314 3400,2380 4226,7066 1846,10466 -2085,2978 -5940,3981 -9148,2584l940 -1344c2462,911 5322,94 6898,-2157 1874,-2677 1224,-6366 -1453,-8240 -2676,-1874 -6365,-1223 -8239,1453 -1576,2251 -1367,5218 332,7219l-941 1345c-275,-290 -524,-599 -746,-923l-5408 0c-357,0 -649,-292 -649,-649l0 0c0,-357 292,-649 649,-649l4697 0 460 0c357,0 649,-292 649,-649l0 0c0,-357 -292,-650 -649,-650l-879 0 -6 -26c-58,17 -119,26 -183,26l-2654 0c-357,0 -649,-292 -649,-649l0 0c0,-357 292,-649 649,-649l2654 0 13 0 0 0 90 0c358,0 650,-293 650,-649l0 -1c0,-357 -292,-649 -650,-649l-39 0 -1243 0c-357,0 -649,-292 -649,-649l0 0c0,-357 292,-649 649,-649l1525 0 148 0 295 0c358,0 650,-293 650,-650l0 0c0,-323 -240,-593 -550,-641l4 -8 -3201 0c-357,0 -650,-292 -650,-649l0 0c0,-357 293,-649 650,-649zm12918 428c2437,1707 3029,5066 1323,7503 -1707,2438 -5066,3030 -7503,1323 -2437,-1706 -3029,-5065 -1323,-7503 1082,-1544 2827,-2347 4581,-2295l0 918c-1465,-53 -2926,614 -3829,1904 -1416,2022 -925,4809 1097,6225 2022,1416 4809,924 6225,-1098 1417,-2022 925,-4809 -1097,-6225 -236,-165 -482,-304 -736,-418l-1 435 -6 4009c-27,335 -140,618 -299,858 -219,333 -615,651 -1002,763 -1252,364 -2502,-536 -2411,-1985 63,-442 257,-859 568,-1150 291,-233 426,-344 815,-444 212,-56 421,-79 662,-56 188,19 377,69 551,142 124,52 207,108 292,165l0 -3015 0 -416 0 -522c731,137 1444,428 2093,882zm-18040 7363l1667 0c358,0 650,292 650,649l0 0c0,357 -292,649 -650,649l-1667 0c-358,0 -650,-292 -650,-649l0 0c0,-357 292,-649 650,-649zm1450 -2597l1668 0c357,0 649,292 649,649l0 0c0,357 -292,649 -649,649l-1668 0c-358,0 -650,-292 -650,-649l0 0c0,-357 292,-649 650,-649zm-3924 0l2146 0c358,0 650,292 650,649l0 0c0,357 -292,649 -650,649l-2146 0c-357,0 -650,-292 -650,-649l0 0c0,-357 293,-649 650,-649zm15051 5213l-1 2 -2 2 -1 2 -3387 4837 0 0 -428 611c-2,3 -6,3 -10,1 -329,470 -1051,532 -1612,139 -562,-393 -750,-1093 -421,-1563 -3,-2 -4,-6 -2,-9l428 -611 3387 -4837 2 -4 3 -4 3 -3 75 -107c568,612 1263,1104 2044,1433l-78 111zm-8704 -7810l628 0c357,0 649,292 649,649l0 0c0,357 -292,649 -649,649l-628 0c-357,0 -649,-292 -649,-649l0 0c0,-357 292,-649 649,-649zm-3553 0l1866 0c357,0 649,292 649,649l0 0c0,357 -292,649 -649,649l-1866 0c-357,0 -649,-292 -649,-649l0 0c0,-357 292,-649 649,-649zm1581 -2597l1470 0c358,0 650,292 650,649l0 0c0,357 -292,649 -650,649l-1470 0c-357,0 -649,-292 -649,-649l0 0c0,-357 292,-649 649,-649z"/>
 </g>
</svg>
