<?xml version="1.0" encoding="UTF-8"?>
<!DOCTYPE svg PUBLIC "-//W3C//DTD SVG 1.1//EN" "http://www.w3.org/Graphics/SVG/1.1/DTD/svg11.dtd">
<!-- Creator: CorelDRAW X7 -->
<svg xmlns="http://www.w3.org/2000/svg" xml:space="preserve" width="256px" height="256px" version="1.1" style="shape-rendering:geometricPrecision; text-rendering:geometricPrecision; image-rendering:optimizeQuality; fill-rule:evenodd; clip-rule:evenodd"
viewBox="0 0 25600 25600"
 xmlns:xlink="http://www.w3.org/1999/xlink">
 <defs>
  <style type="text/css">
   <![CDATA[
    .fil1 {fill:#FEFEFE}
    .fil0 {fill:url(#id0)}
   ]]>
  </style>
  <linearGradient id="id0" gradientUnits="userSpaceOnUse" x1="23516.4" y1="20551.5" x2="2083.47" y2="5048.4">
   <stop offset="0" style="stop-opacity:1; stop-color:#EE3B37"/>
   <stop offset="1" style="stop-opacity:1; stop-color:#FBD925"/>
  </linearGradient>
 </defs>
 <g id="Layer_x0020_1">
  <metadata id="CorelCorpID_0Corel-Layer"/>
  <g id="_279574976">
   <rect class="fil0" width="25600" height="25600" rx="5195" ry="5195"/>
   <path class="fil1" d="M8679 6647l3697 0c2245,-2671 6198,-3229 9110,-1190 3079,2156 3828,6400 1671,9480 -1888,2697 -5379,3606 -8286,2341l853 -1218c2229,826 4820,85 6247,-1954 1698,-2424 1109,-5766 -1316,-7463 -2424,-1698 -5765,-1109 -7463,1316 -1428,2039 -1238,4726 301,6539l-853 1218c-249,-263 -474,-543 -675,-836l-4899 0c-323,0 -588,-264 -588,-588l0 0c0,-323 265,-588 588,-588l4679 0c320,-4 581,-267 581,-588l0 0c0,-324 -265,-588 -588,-588l-797 0 -5 -24c-53,15 -108,24 -166,24l-2404 0c-323,0 -588,-265 -588,-588l0 0c0,-324 265,-588 588,-588l2404 0 12 0 0 0 82 0c323,0 588,-265 588,-588l0 0c0,-324 -265,-589 -588,-589l-36 0 -1126 0c-323,0 -588,-264 -588,-588l0 0c0,-323 265,-588 588,-588l1382 0 134 0 267 0c324,0 588,-264 588,-588l0 0c0,-293 -217,-537 -498,-581l4 -7 -2900 0c-323,0 -588,-265 -588,-588l0 0c0,-324 265,-588 588,-588zm11701 388c2208,1546 2745,4589 1199,6796 -1546,2208 -4589,2744 -6796,1199 -2208,-1546 -2744,-4589 -1198,-6797 979,-1399 2560,-2126 4148,-2078l0 831c-1326,-48 -2650,556 -3468,1724 -1282,1832 -837,4356 995,5639 1831,1283 4356,837 5638,-994 1283,-1832 838,-4357 -994,-5639 -214,-150 -437,-276 -666,-379l-1 395 -6 3631c-24,303 -127,560 -271,777 -198,302 -557,590 -907,692 -1134,329 -2266,-487 -2184,-1799 56,-401 233,-778 514,-1041 264,-212 386,-312 739,-403 191,-50 381,-72 600,-50 169,16 341,62 498,128 112,47 188,98 265,149l0 -2731 0 -377 0 -472c662,124 1308,388 1895,799zm-16340 6669l1511 0c323,0 588,265 588,588l0 0c0,324 -265,588 -588,588l-1511 0c-324,0 -588,-264 -588,-588l0 0c0,-323 264,-588 588,-588zm1313 -2352l1511 0c323,0 588,264 588,588l0 0c0,323 -265,588 -588,588l-1511 0c-323,0 -588,-265 -588,-588l0 0c0,-324 265,-588 588,-588zm-3554 0l1944 0c324,0 588,264 588,588l0 0c0,323 -264,588 -588,588l-1944 0c-324,0 -588,-265 -588,-588l0 0c0,-324 264,-588 588,-588zm13633 4722l-1 2 -1 1 -1 2 -3068 4381 -1 1 -387 553c-2,3 -6,3 -9,1 -298,426 -952,482 -1460,126 -509,-356 -680,-990 -381,-1416 -4,-2 -4,-5 -3,-8l388 -554 3068 -4381 3 -4 2 -3 2 -3 68 -97c515,554 1144,1000 1852,1298l-71 101zm-7884 -7075l569 0c323,0 588,265 588,588l0 0c0,324 -265,588 -588,588l-569 0c-323,0 -588,-264 -588,-588l0 0c0,-323 265,-588 588,-588zm-3217 0l1689 0c324,0 588,265 588,588l0 0c0,324 -264,588 -588,588l-1689 0c-324,0 -589,-264 -589,-588l0 0c0,-323 265,-588 589,-588zm1431 -2352l1332 0c324,0 588,264 588,588l0 0c0,323 -264,588 -588,588l-1332 0c-323,0 -588,-265 -588,-588l0 0c0,-324 265,-588 588,-588z"/>
  </g>
 </g>
</svg>
