<?xml version="1.0" encoding="UTF-8"?>
<!DOCTYPE svg PUBLIC "-//W3C//DTD SVG 1.1//EN" "http://www.w3.org/Graphics/SVG/1.1/DTD/svg11.dtd">
<!-- Creator: CorelDRAW X7 -->
<svg xmlns="http://www.w3.org/2000/svg" xml:space="preserve" width="30px" height="30px" version="1.1" style="shape-rendering:geometricPrecision; text-rendering:geometricPrecision; image-rendering:optimizeQuality; fill-rule:evenodd; clip-rule:evenodd"
viewBox="0 0 3000 3000"
 xmlns:xlink="http://www.w3.org/1999/xlink">
 <defs>
  <style type="text/css">
   <![CDATA[
    .fil0 {fill:url(#id0)}
   ]]>
  </style>
  <linearGradient id="id0" gradientUnits="userSpaceOnUse" x1="1073.98" y1="937.441" x2="1925.91" y2="2062.56">
   <stop offset="0" style="stop-opacity:1; stop-color:#FEBF2C"/>
   <stop offset="1" style="stop-opacity:1; stop-color:#E64438"/>
  </linearGradient>
 </defs>
 <g id="Layer_x0020_1">
  <metadata id="CorelCorpID_0Corel-Layer"/>
  <path class="fil0" d="M974 715l472 0c286,-340 790,-412 1162,-151 392,274 488,816 213,1208 -241,344 -686,460 -1057,299l109 -155c284,105 615,11 797,-249 216,-310 141,-736 -168,-952 -309,-217 -736,-142 -952,168 -182,260 -158,602 38,833l-108 156c-32,-34 -61,-69 -87,-107l-624 0c-42,0 -75,-34 -75,-75l0 0c0,-41 33,-75 75,-75l542 0 54 0c41,0 75,-34 75,-75l0 0c0,-41 -34,-75 -75,-75l-102 0 -1 -3c-6,2 -14,3 -21,3l-306 0c-42,0 -75,-34 -75,-75l0 0c0,-41 33,-75 75,-75l306 0 2 0 0 0 10 0c41,0 75,-34 75,-75l0 0c0,-41 -34,-75 -75,-75l-5 0 -143 0c-41,0 -75,-34 -75,-75l0 0c0,-41 34,-75 75,-75l176 0 17 0 34 0c42,0 75,-34 75,-75l0 0c0,-37 -27,-68 -63,-74l0 -1 -370 0c-41,0 -75,-34 -75,-75l0 0c0,-41 34,-75 75,-75zm1493 50c281,197 350,585 153,866 -198,282 -586,350 -867,153 -282,-197 -350,-585 -153,-866 125,-179 327,-272 529,-265l0 106c-169,-7 -338,70 -442,219 -164,234 -107,556 127,719 233,164 555,107 719,-126 163,-234 107,-556 -127,-719 -27,-19 -56,-36 -85,-49l0 51 -1 463c-3,38 -16,71 -34,99 -26,38 -72,75 -116,88 -145,42 -289,-62 -279,-229 8,-51 30,-100 66,-133 34,-27 49,-40 94,-52 25,-6 49,-9 77,-6 21,2 43,8 63,16 14,6 24,13 34,19l0 -348 0 -48 0 -60c84,16 167,49 242,102zm-2084 850l192 0c42,0 75,34 75,75l0 0c0,41 -33,75 -75,75l-192 0c-41,0 -75,-34 -75,-75l0 0c0,-41 34,-75 75,-75zm167 -300l193 0c41,0 75,34 75,75l0 0c0,41 -34,75 -75,75l-193 0c-41,0 -75,-34 -75,-75l0 0c0,-41 34,-75 75,-75zm-453 0l248 0c41,0 75,34 75,75l0 0c0,41 -34,75 -75,75l-248 0c-41,0 -75,-34 -75,-75l0 0c0,-41 34,-75 75,-75zm1739 603l0 0 -1 0 0 0 -391 559 0 0 -50 71c0,0 0,0 -1,0 -38,54 -121,61 -186,16 -65,-46 -86,-127 -48,-181 -1,0 -1,-1 -1,-1l50 -71 391 -558 0 -1 1 0 0 -1 9 -12c65,71 145,128 236,166l-9 13zm-1006 -903l73 0c41,0 75,34 75,75l0 0c0,41 -34,75 -75,75l-73 0c-41,0 -75,-34 -75,-75l0 0c0,-41 34,-75 75,-75zm-410 0l215 0c42,0 75,34 75,75l0 0c0,41 -33,75 -75,75l-215 0c-41,0 -75,-34 -75,-75l0 0c0,-41 34,-75 75,-75zm182 -300l170 0c42,0 75,34 75,75l0 0c0,41 -33,75 -75,75l-170 0c-41,0 -75,-34 -75,-75l0 0c0,-41 34,-75 75,-75z"/>
 </g>
</svg>
