<?xml version="1.0" encoding="UTF-8"?>
<!DOCTYPE svg PUBLIC "-//W3C//DTD SVG 1.1//EN" "http://www.w3.org/Graphics/SVG/1.1/DTD/svg11.dtd">
<!-- Creator: CorelDRAW X7 -->
<svg xmlns="http://www.w3.org/2000/svg" xml:space="preserve" width="30px" height="30px" version="1.1" style="shape-rendering:geometricPrecision; text-rendering:geometricPrecision; image-rendering:optimizeQuality; fill-rule:evenodd; clip-rule:evenodd"
viewBox="0 0 3000 3000"
 xmlns:xlink="http://www.w3.org/1999/xlink">
 <defs>
  <style type="text/css">
   <![CDATA[
    .fil1 {fill:#FEFEFE}
    .fil0 {fill:url(#id0)}
   ]]>
  </style>
  <linearGradient id="id0" gradientUnits="userSpaceOnUse" x1="2755.97" y1="2408.46" x2="244.035" y2="591.543">
   <stop offset="0" style="stop-opacity:1; stop-color:#EE3B37"/>
   <stop offset="1" style="stop-opacity:1; stop-color:#FBD925"/>
  </linearGradient>
 </defs>
 <g id="Layer_x0020_1">
  <metadata id="CorelCorpID_0Corel-Layer"/>
  <g id="_404814104">
   <rect class="fil0" width="3000" height="3000" rx="609" ry="609"/>
   <path class="fil1" d="M1017 779l433 0c263,-313 727,-379 1068,-140 361,253 449,750 196,1111 -222,317 -631,423 -971,275l100 -143c261,97 565,10 732,-229 199,-284 130,-676 -154,-875 -284,-199 -676,-130 -875,155 -167,239 -145,554 35,766l-100 143c-29,-31 -55,-64 -79,-98l-574 0c-38,0 -69,-31 -69,-69l0 0c0,-38 31,-69 69,-69l499 0 49 0 1 0c37,-1 67,-32 67,-69l0 0c0,-38 -31,-69 -68,-69l-94 0 0 -3c-7,2 -13,3 -20,3l-282 0c-38,0 -68,-31 -68,-69l0 0c0,-38 30,-69 68,-69l282 0 2 0 0 0 9 0c38,0 69,-31 69,-69l0 0c0,-37 -30,-68 -67,-69l-2 0 -4 0 -132 0c-38,0 -69,-31 -69,-68l0 -1c0,-37 31,-68 69,-68l162 0 16 0 1 0 30 0c38,0 69,-31 69,-69l0 0c0,-35 -26,-63 -59,-68l1 -1 -340 0c-38,0 -69,-31 -69,-69l0 0c0,-38 31,-69 69,-69zm1371 45c259,182 322,538 141,797 -181,259 -538,321 -797,140 -258,-181 -321,-537 -140,-796 115,-164 300,-249 486,-244l0 98c-155,-6 -310,65 -406,202 -151,214 -98,510 116,661 215,150 511,98 661,-117 150,-215 98,-511 -116,-661 -25,-17 -52,-32 -79,-44l0 46 0 426c-3,35 -15,65 -32,91 -23,35 -65,69 -106,81 -133,38 -266,-57 -256,-211 6,-47 27,-91 60,-122 31,-25 45,-37 86,-47 23,-6 45,-9 71,-6 20,2 40,7 58,15 13,5 22,11 31,17l0 -320 0 -44 0 -55c78,14 154,45 222,93zm-1915 782l177 0c38,0 69,31 69,69l0 0c0,38 -31,69 -69,69l-177 0c-38,0 -69,-31 -69,-69l0 0c0,-38 31,-69 69,-69zm154 -276l177 0c38,0 69,31 69,69l0 0c0,38 -31,69 -69,69l-177 0c-38,0 -69,-31 -69,-69l0 0c0,-38 31,-69 69,-69zm-416 0l228 0c37,0 68,31 68,69l0 0c0,38 -31,69 -68,69l-228 0c-38,0 -69,-31 -69,-69l0 0c0,-38 31,-69 69,-69zm1597 554l0 0 0 0 0 0 -360 514 0 0 -45 65c0,0 -1,0 -1,0 -35,50 -112,56 -171,15 -60,-42 -80,-116 -45,-166 0,-1 0,-1 0,-1l45 -65 360 -514 0 0 1 0 0 -1 8 -11c60,65 134,117 217,152l-9 12zm-924 -829l67 0c38,0 69,31 69,68l0 1c0,37 -31,68 -69,68l-67 0c-37,0 -68,-31 -68,-68l0 -1c0,-37 31,-68 68,-68zm-377 0l198 0c38,0 69,31 69,68l0 1c0,37 -31,68 -69,68l-198 0c-38,0 -69,-31 -69,-68l0 -1c0,-37 31,-68 69,-68zm168 -276l156 0c38,0 69,31 69,69l0 0c0,38 -31,69 -69,69l-156 0c-38,0 -69,-31 -69,-69l0 0c0,-38 31,-69 69,-69z"/>
  </g>
 </g>
</svg>
