<?xml version="1.0" encoding="UTF-8"?>
<!DOCTYPE svg PUBLIC "-//W3C//DTD SVG 1.1//EN" "http://www.w3.org/Graphics/SVG/1.1/DTD/svg11.dtd">
<!-- Creator: CorelDRAW X7 -->
<svg xmlns="http://www.w3.org/2000/svg" xml:space="preserve" width="48px" height="36px" version="1.1" style="shape-rendering:geometricPrecision; text-rendering:geometricPrecision; image-rendering:optimizeQuality; fill-rule:evenodd; clip-rule:evenodd"
viewBox="0 0 4800 3600"
 xmlns:xlink="http://www.w3.org/1999/xlink">
 <defs>
  <style type="text/css">
   <![CDATA[
    .fil0 {fill:url(#id0)}
   ]]>
  </style>
  <linearGradient id="id0" gradientUnits="userSpaceOnUse" x1="1702.8" y1="879.213" x2="3097.09" y2="2720.79">
   <stop offset="0" style="stop-opacity:1; stop-color:#FEBF2C"/>
   <stop offset="1" style="stop-opacity:1; stop-color:#E64438"/>
  </linearGradient>
 </defs>
 <g id="Layer_x0020_1">
  <metadata id="CorelCorpID_0Corel-Layer"/>
  <path class="fil0" d="M1540 516l772 0c468,-558 1293,-675 1901,-249 643,450 799,1336 349,1979 -394,563 -1123,753 -1730,489l178 -255c466,173 1006,18 1304,-407 355,-507 232,-1204 -274,-1558 -506,-355 -1204,-232 -1558,274 -298,426 -259,987 63,1365l-178 255c-52,-55 -99,-114 -141,-175l-1023 0c-67,0 -123,-55 -123,-123l0 0c0,-67 56,-122 123,-122l888 0 87 0c68,0 123,-56 123,-123l0 0c0,-68 -55,-123 -123,-123l-166 0 -1 -5c-11,3 -23,5 -35,5l-502 0c-67,0 -122,-55 -122,-123l0 0c0,-67 55,-122 122,-122l502 0 3 0 0 0 17 0c67,0 123,-56 123,-123l0 0c0,-68 -56,-123 -123,-123l-8 0 -235 0c-67,0 -122,-55 -122,-123l0 0c0,-67 55,-122 122,-122l289 0 28 0 56 0c67,0 122,-56 122,-123l0 0c0,-61 -45,-112 -104,-121l1 -2 -605 0c-68,0 -123,-55 -123,-123l0 0c0,-67 55,-122 123,-122zm2442 81c461,322 573,957 250,1418 -322,461 -957,573 -1418,250 -461,-322 -573,-957 -250,-1418 204,-292 534,-444 866,-434l0 173c-277,-10 -553,116 -724,360 -268,383 -175,910 207,1177 383,268 910,175 1177,-207 268,-383 175,-910 -207,-1177 -45,-32 -91,-58 -139,-79l0 82 -2 758c-5,63 -26,117 -56,162 -42,63 -116,123 -190,144 -236,69 -473,-101 -455,-375 11,-84 48,-162 107,-217 55,-44 80,-65 154,-84 40,-11 80,-15 125,-11 36,4 71,13 104,27 24,10 39,20 56,31l0 -570 0 -79 0 -98c138,26 273,81 395,167zm-3411 1392l316 0c67,0 122,55 122,122l0 0c0,68 -55,123 -122,123l-316 0c-67,0 -122,-55 -122,-123l0 0c0,-67 55,-122 122,-122zm274 -491l316 0c67,0 123,55 123,122l0 0c0,68 -56,123 -123,123l-316 0c-67,0 -122,-55 -122,-123l0 0c0,-67 55,-122 122,-122zm-741 0l405 0c68,0 123,55 123,122l0 0c0,68 -55,123 -123,123l-405 0c-68,0 -123,-55 -123,-123l0 0c0,-67 55,-122 123,-122zm2845 985l0 1 0 0 0 0 -641 915 0 0 -81 116c0,0 -1,0 -1,0 -63,89 -199,100 -305,26 -107,-74 -142,-207 -80,-295 -1,-1 -1,-2 0,-2l81 -116 640 -914 0 -1 1 -1 0 0 15 -21c107,116 238,209 386,271l-15 21zm-1645 -1476l118 0c68,0 123,55 123,122l0 0c0,68 -55,123 -123,123l-118 0c-68,0 -123,-55 -123,-123l0 0c0,-67 55,-122 123,-122zm-672 0l353 0c67,0 122,55 122,122l0 0c0,68 -55,123 -122,123l-353 0c-68,0 -123,-55 -123,-123l0 0c0,-67 55,-122 123,-122zm299 -491l278 0c67,0 123,55 123,122l0 0c0,68 -56,123 -123,123l-278 0c-68,0 -123,-55 -123,-123l0 0c0,-67 55,-122 123,-122z"/>
 </g>
</svg>
