<?xml version="1.0" encoding="UTF-8"?>
<!DOCTYPE svg PUBLIC "-//W3C//DTD SVG 1.1//EN" "http://www.w3.org/Graphics/SVG/1.1/DTD/svg11.dtd">
<!-- Creator: CorelDRAW X7 -->
<svg xmlns="http://www.w3.org/2000/svg" xml:space="preserve" width="48px" height="48px" version="1.1" style="shape-rendering:geometricPrecision; text-rendering:geometricPrecision; image-rendering:optimizeQuality; fill-rule:evenodd; clip-rule:evenodd"
viewBox="0 0 4800 4800"
 xmlns:xlink="http://www.w3.org/1999/xlink">
 <defs>
  <style type="text/css">
   <![CDATA[
    .fil1 {fill:#FEFEFE}
    .fil0 {fill:url(#id0)}
   ]]>
  </style>
  <linearGradient id="id0" gradientUnits="userSpaceOnUse" x1="4409.39" y1="3853.42" x2="390.61" y2="946.464">
   <stop offset="0" style="stop-opacity:1; stop-color:#EE3B37"/>
   <stop offset="1" style="stop-opacity:1; stop-color:#FBD925"/>
  </linearGradient>
 </defs>
 <g id="Layer_x0020_1">
  <metadata id="CorelCorpID_0Corel-Layer"/>
  <g id="_281618832">
   <rect class="fil0" width="4800" height="4800" rx="974" ry="974"/>
   <path class="fil1" d="M1627 1246l694 0c420,-500 1162,-605 1708,-223 577,404 717,1200 313,1778 -354,505 -1009,676 -1554,439l160 -229c418,155 904,16 1172,-366 318,-455 208,-1081 -247,-1400 -455,-318 -1081,-207 -1399,247 -268,383 -233,887 56,1226l-160 229c-47,-49 -89,-102 -127,-157l-918 0c-61,0 -110,-49 -110,-110l0 0c0,-61 49,-111 110,-111l798 0 78 0 3 0c59,-1 107,-50 107,-110l0 0c0,-60 -50,-110 -110,-110l-150 0 -1 -5c-9,3 -20,5 -31,5l-450 0c-61,0 -111,-50 -111,-110l0 0c0,-61 50,-111 111,-111l450 0 3 0 0 0 15 0c61,0 110,-49 110,-110l0 0c0,-60 -48,-109 -107,-110l-3 0 -7 0 -211 0c-61,0 -110,-50 -110,-110l0 -1c0,-60 49,-110 110,-110l285 0 5 0 44 0c61,0 111,-49 111,-110l0 0c0,-55 -41,-101 -94,-109l1 -1 -544 0c-60,0 -110,-50 -110,-110l0 -1c0,-60 50,-110 110,-110zm2194 73c414,290 515,860 225,1274 -290,414 -860,515 -1274,225 -414,-290 -515,-860 -225,-1274 184,-263 480,-399 778,-390l0 156c-249,-9 -497,104 -650,323 -241,344 -157,817 186,1057 344,241 817,157 1057,-186 241,-343 157,-817 -186,-1057 -40,-28 -82,-52 -125,-71l0 74 -1 681c-5,57 -24,104 -51,145 -37,57 -104,111 -170,130 -213,62 -425,-91 -410,-337 11,-75 44,-146 97,-196 49,-39 72,-58 138,-75 36,-9 72,-14 113,-9 32,3 64,11 93,24 21,8 35,18 50,27l0 -512 0 -70 0 -89c124,23 245,73 355,150zm-3064 1250l284 0c60,0 110,50 110,111l0 0c0,61 -50,110 -110,110l-284 0c-60,0 -110,-49 -110,-110l0 0c0,-61 50,-111 110,-111zm247 -441l283 0c61,0 110,50 110,111l0 0c0,60 -49,110 -110,110l-283 0c-61,0 -111,-50 -111,-110l0 0c0,-61 50,-111 111,-111zm-667 0l365 0c61,0 110,50 110,111l0 0c0,60 -49,110 -110,110l-365 0c-61,0 -110,-50 -110,-110l0 0c0,-61 49,-111 110,-111zm2556 886l0 0 0 1 0 0 -575 821 0 0 -73 104c0,1 -1,1 -2,0 -55,80 -178,91 -274,24 -95,-67 -127,-186 -71,-265 -1,-1 -1,-1 0,-2l72 -104 576 -821 0 -1 0 -1 1 0 13 -18c96,104 214,187 347,243l-14 19zm-1478 -1327l107 0c61,0 110,50 110,110l0 1c0,60 -49,110 -110,110l-107 0c-61,0 -110,-50 -110,-110l0 -1c0,-60 49,-110 110,-110zm-603 0l317 0c60,0 110,50 110,110l0 1c0,60 -50,110 -110,110l-317 0c-61,0 -110,-50 -110,-110l0 -1c0,-60 49,-110 110,-110zm268 -441l250 0c61,0 110,50 110,110l0 1c0,60 -49,110 -110,110l-250 0c-60,0 -110,-50 -110,-110l0 -1c0,-60 50,-110 110,-110z"/>
  </g>
 </g>
</svg>
