<?xml version="1.0" encoding="UTF-8"?>
<!DOCTYPE svg PUBLIC "-//W3C//DTD SVG 1.1//EN" "http://www.w3.org/Graphics/SVG/1.1/DTD/svg11.dtd">
<!-- Creator: CorelDRAW X7 -->
<svg xmlns="http://www.w3.org/2000/svg" xml:space="preserve" width="512px" height="128px" version="1.1" style="shape-rendering:geometricPrecision; text-rendering:geometricPrecision; image-rendering:optimizeQuality; fill-rule:evenodd; clip-rule:evenodd"
viewBox="0 0 51200 12800"
 xmlns:xlink="http://www.w3.org/1999/xlink">
 <defs>
  <style type="text/css">
   <![CDATA[
    .fil0 {fill:url(#id0);fill-rule:nonzero}
   ]]>
  </style>
  <linearGradient id="id0" gradientUnits="userSpaceOnUse" x1="6373.72" y1="-1732.09" x2="44826" y2="14532">
   <stop offset="0" style="stop-opacity:1; stop-color:#FBAD30"/>
   <stop offset="1" style="stop-opacity:1; stop-color:#E74F37"/>
  </linearGradient>
 </defs>
 <g id="Layer_x0020_1">
  <metadata id="CorelCorpID_0Corel-Layer"/>
  <path class="fil0" d="M19984 3560c140,-21 275,-32 405,-32 137,0 272,11 406,32l868 2168 895 -2168c108,-21 230,-32 363,-32 133,0 261,11 384,32l179 3784c-133,21 -260,32 -379,32 -119,0 -237,-11 -353,-32l-94 -2568 -769 1779c-49,7 -100,13 -152,18 -53,5 -106,8 -158,8 -46,0 -91,-2 -137,-5 -46,-4 -93,-11 -142,-21l-716 -1816 -74 2605c-112,21 -221,32 -326,32 -112,0 -228,-11 -347,-32l147 -3784zm-5669 -1471c1651,1156 2052,3431 896,5082 -1156,1651 -3431,2052 -5082,896 -1651,-1156 -2052,-3431 -896,-5082 732,-1046 1915,-1590 3102,-1554l0 621c-992,-36 -1981,416 -2593,1290 -959,1369 -626,3257 743,4216 1370,959 3258,626 4217,-743 959,-1370 626,-3258 -744,-4217 -159,-112 -326,-206 -498,-283l0 295 -4 2715c-19,227 -96,419 -203,581 -149,226 -417,441 -679,517 -848,247 -1694,-363 -1633,-1344 42,-300 174,-582 385,-779 197,-158 288,-233 552,-301 143,-38 285,-54 448,-38 127,12 255,47 373,96 84,35 141,73 198,112l0 -2043 0 -281 0 -354c495,93 979,290 1418,598zm-12219 4987l1129 0c242,0 440,198 440,439l0 1c0,242 -198,439 -440,439l-1129 0c-242,0 -440,-197 -440,-439l0 -1c0,-241 198,-439 440,-439zm981 -1759l1130 0c242,0 440,198 440,440l0 0c0,241 -198,439 -440,439l-1130 0c-241,0 -439,-198 -439,-439l0 0c0,-242 198,-440 439,-440zm-2657 0l1454 0c242,0 440,198 440,440l0 0c0,241 -198,439 -440,439l-1454 0c-242,0 -440,-198 -440,-439l0 0c0,-242 198,-440 440,-440zm10194 3531l0 1 -1 2 -1 1 -2294 3276 0 0 -290 414c-2,2 -5,2 -7,1 -222,318 -711,360 -1092,94 -380,-266 -508,-740 -285,-1058 -2,-2 -3,-5 -2,-7l291 -414 2294 -3276 1 -3 2 -2 2 -3 51 -72c384,414 855,748 1384,971l-53 75zm3906 -7052c1813,1269 2254,3768 984,5580 -1067,1525 -3004,2079 -4672,1462l-637 910c2173,946 4784,267 6197,-1750 1612,-2303 1052,-5477 -1251,-7089 -2177,-1525 -5133,-1107 -6811,890l-2765 0c-242,0 -440,197 -440,439l0 0c0,242 198,440 440,440l2168 0 -3 5c211,33 373,216 373,435l0 0c0,242 -198,440 -440,440l-200 0 -100 0 -1033 0c-242,0 -440,198 -440,439l0 0c0,242 198,440 440,440l842 0 26 0c242,0 440,198 440,440l0 0c0,242 -198,440 -440,440l-58 0 -3 0 -9 0 -1797 0c-242,0 -440,198 -440,440l0 0c0,241 198,439 440,439l1797 0c44,0 85,-6 124,-18l4 18 596 0c242,0 440,198 440,440l0 0c0,242 -198,440 -440,440l-312 0 0 0 -3181 0c-242,0 -440,198 -440,440l0 0c0,242 198,439 440,439l3663 0c150,220 318,429 505,625l637 -910c-1150,-1356 -1292,-3366 -224,-4890 1269,-1813 3768,-2254 5580,-984zm-9801 1762l425 0c242,0 440,198 440,439l0 0c0,242 -198,440 -440,440l-425 0c-242,0 -440,-198 -440,-440l0 0c0,-241 198,-439 440,-439zm-2406 0l1263 0c242,0 440,198 440,439l0 0c0,242 -198,440 -440,440l-1263 0c-242,0 -440,-198 -440,-440l0 0c0,-241 198,-439 440,-439zm1071 -1759l996 0c241,0 439,197 439,439l0 0c0,242 -198,440 -439,440l-996 0c-242,0 -440,-198 -440,-440l0 0c0,-242 198,-439 440,-439zm45420 1698c60,-11 121,-18 184,-21 63,-4 125,-6 184,-6 60,0 121,2 185,6 63,3 126,10 189,21l0 1447c25,-32 57,-69 97,-113 41,-44 91,-86 151,-126 59,-41 131,-75 215,-103 85,-28 181,-42 290,-42 302,0 530,84 687,253 156,168 234,433 234,794l0 1742c-63,11 -126,18 -189,22 -64,3 -125,5 -185,5 -60,0 -121,-2 -184,-5 -63,-4 -126,-11 -190,-22l0 -1542c0,-189 -29,-335 -89,-437 -60,-101 -161,-152 -305,-152 -60,0 -121,9 -185,26 -63,18 -120,52 -171,103 -50,51 -93,122 -126,213 -33,91 -50,210 -50,358l0 1431c-63,11 -126,18 -189,22 -64,3 -125,5 -185,5 -59,0 -120,-2 -181,-5 -62,-4 -124,-11 -187,-22l0 -3852zm-776 3205c42,70 77,152 105,245 28,93 42,202 42,329 -140,56 -272,92 -395,108 -123,16 -251,23 -384,23 -228,0 -426,-36 -595,-108 -168,-72 -308,-171 -418,-297 -111,-126 -194,-276 -250,-450 -56,-174 -85,-362 -85,-566 0,-200 28,-386 82,-558 55,-172 137,-323 248,-452 110,-130 248,-232 413,-306 165,-73 356,-110 573,-110 78,0 149,2 214,5 65,4 127,11 187,21 59,11 119,25 178,42 60,18 127,41 201,69 0,80 -11,171 -32,271 -21,100 -54,195 -100,287 -105,-36 -197,-59 -276,-71 -79,-13 -170,-19 -271,-19 -218,0 -382,71 -493,213 -110,142 -165,345 -165,608 0,284 59,491 179,621 119,130 280,195 484,195 52,0 101,-1 144,-3 44,-1 87,-6 129,-13 43,-7 85,-17 129,-31 44,-14 96,-32 156,-53zm-3845 -2079c53,-11 102,-18 150,-24 47,-5 99,-8 155,-8 53,0 105,4 155,11 51,7 101,16 150,26 11,18 21,43 29,77 9,33 17,68 24,105 7,37 13,74 18,110 6,37 10,68 14,92 77,-108 172,-206 284,-292 112,-86 252,-129 421,-129 35,0 75,2 121,6 46,3 79,8 100,15 7,36 12,76 16,122 3,45 5,92 5,142 0,59 -3,124 -8,194 -5,71 -15,137 -29,200 -38,-7 -81,-10 -129,-10 -47,0 -76,0 -87,0 -59,0 -126,6 -200,18 -73,13 -143,45 -210,98 -67,52 -122,131 -166,236 -44,106 -66,253 -66,443l0 1294c-63,11 -126,18 -189,22 -63,3 -125,5 -184,5 -60,0 -121,-2 -182,-5 -61,-4 -125,-11 -192,-22l0 -2726zm-1390 1474c-42,-7 -88,-13 -137,-19 -49,-5 -93,-8 -131,-8 -172,0 -308,31 -408,93 -100,61 -150,160 -150,297 0,91 19,161 58,210 38,50 85,86 139,108 55,23 112,37 174,43 61,5 115,7 160,7 53,0 106,-4 158,-13 53,-9 99,-16 137,-23l0 -695zm0 -542c0,-85 -14,-153 -42,-206 -28,-52 -67,-94 -116,-123 -49,-30 -110,-50 -181,-61 -72,-10 -152,-16 -240,-16 -189,0 -391,37 -605,111 -49,-91 -86,-177 -111,-258 -24,-81 -37,-177 -37,-290 155,-52 309,-91 464,-115 154,-25 298,-37 431,-37 365,0 650,88 855,263 206,175 308,456 308,842l0 1579c-122,39 -272,76 -447,111 -175,35 -374,52 -595,52 -179,0 -343,-16 -492,-47 -149,-32 -277,-84 -384,-158 -107,-74 -190,-168 -248,-284 -58,-116 -86,-258 -86,-427 0,-168 36,-309 107,-423 72,-114 165,-205 280,-274 114,-68 241,-117 381,-147 141,-30 281,-45 421,-45 102,0 214,5 337,16l0 -63zm-3846 658c14,210 87,363 221,457 133,95 309,143 526,143 119,0 241,-12 366,-35 125,-22 243,-55 355,-97 39,70 72,154 100,253 28,98 44,203 47,315 -273,106 -582,158 -926,158 -252,0 -469,-35 -650,-105 -181,-70 -328,-168 -442,-292 -114,-125 -198,-273 -253,-445 -54,-172 -81,-359 -81,-563 0,-200 28,-388 84,-563 56,-176 140,-328 250,-458 111,-130 247,-233 411,-308 163,-76 353,-113 571,-113 189,0 358,33 505,100 147,66 273,158 376,273 104,116 182,254 235,414 52,159 79,330 79,513 0,66 -3,132 -8,197 -6,65 -12,117 -19,156l-1747 0zm1068 -521c-7,-169 -53,-305 -139,-408 -86,-104 -207,-156 -361,-156 -175,0 -309,49 -400,148 -91,98 -145,236 -163,416l1063 0zm-4089 -101c-120,-45 -227,-95 -321,-150 -95,-54 -176,-119 -243,-194 -66,-76 -118,-166 -155,-271 -37,-106 -55,-232 -55,-379 0,-179 31,-337 92,-474 61,-137 148,-252 261,-345 112,-93 247,-163 405,-210 158,-48 335,-71 532,-71 178,0 346,15 502,47 156,32 320,77 492,137 -21,203 -77,403 -168,600 -53,-21 -106,-42 -161,-63 -54,-21 -112,-39 -173,-53 -62,-14 -131,-25 -208,-34 -77,-9 -165,-13 -263,-13 -60,0 -121,5 -182,16 -61,10 -117,29 -166,57 -49,29 -89,70 -121,124 -31,54 -47,125 -47,213 0,70 12,129 37,177 24,47 57,87 99,121 43,33 90,61 143,84 52,23 105,45 157,66l316 121c134,52 255,107 364,163 108,56 201,125 276,208 75,82 134,182 176,300 42,117 63,262 63,434 0,179 -32,342 -97,489 -65,148 -159,274 -282,379 -122,106 -274,188 -455,248 -181,60 -388,89 -624,89 -115,0 -219,-3 -310,-10 -91,-7 -178,-19 -261,-34 -82,-16 -164,-36 -244,-61 -81,-24 -165,-54 -253,-89 10,-102 30,-208 58,-319 28,-110 61,-222 100,-334 147,60 286,104 416,134 130,30 268,45 415,45 222,0 395,-41 522,-124 126,-82 189,-208 189,-376 0,-84 -15,-155 -45,-211 -30,-56 -68,-103 -116,-142 -47,-38 -100,-71 -160,-97 -60,-27 -121,-52 -184,-77l-321 -121zm-2710 1111c42,70 77,152 105,245 28,93 43,202 43,329 -141,56 -272,92 -395,108 -123,16 -251,23 -385,23 -228,0 -426,-36 -594,-108 -169,-72 -308,-171 -419,-297 -110,-126 -194,-276 -250,-450 -56,-174 -84,-362 -84,-566 0,-200 27,-386 82,-558 54,-172 136,-323 247,-452 110,-130 248,-232 413,-306 165,-73 356,-110 574,-110 77,0 148,2 213,5 65,4 127,11 187,21 60,11 119,25 179,42 59,18 126,41 200,69 0,80 -11,171 -32,271 -21,100 -54,195 -100,287 -105,-36 -197,-59 -276,-71 -79,-13 -169,-19 -271,-19 -218,0 -382,71 -492,213 -111,142 -166,345 -166,608 0,284 60,491 179,621 119,130 281,195 484,195 53,0 101,-1 145,-3 44,-1 87,-6 129,-13 42,-7 85,-17 129,-31 44,-14 95,-32 155,-53zm-3359 -1511l-353 0c-10,-45 -18,-93 -23,-144 -6,-51 -8,-99 -8,-145 0,-95 10,-188 31,-279l1085 0 0 2721c-127,21 -250,32 -369,32 -116,0 -237,-11 -363,-32l0 -2153zm-111 -1026c-21,-119 -31,-237 -31,-353 0,-112 10,-230 31,-352 60,-11 124,-19 193,-24 68,-5 130,-8 186,-8 60,0 125,3 195,8 70,5 135,13 195,24 10,59 17,118 21,176 3,58 5,117 5,176 0,57 -2,114 -5,174 -4,60 -11,119 -21,179 -60,10 -124,18 -192,21 -69,4 -133,5 -192,5 -56,0 -120,-1 -190,-5 -70,-3 -135,-11 -195,-21zm-1931 1995c-197,-56 -350,-140 -461,-250 -110,-111 -166,-276 -166,-498 0,-266 96,-475 287,-626 191,-151 452,-226 782,-226 137,0 272,12 405,37 133,24 269,61 405,110 -7,91 -24,186 -52,284 -28,99 -62,185 -100,258 -84,-35 -177,-65 -279,-92 -102,-26 -209,-39 -321,-39 -120,0 -213,18 -279,55 -67,37 -100,96 -100,176 0,77 23,132 71,163 47,32 115,62 203,90l300 90c98,28 186,62 265,102 79,40 147,90 203,150 56,60 100,133 132,221 31,88 47,195 47,321 0,130 -27,251 -82,363 -54,113 -133,210 -237,292 -103,83 -228,148 -376,195 -147,48 -314,71 -500,71 -84,0 -161,-2 -231,-7 -71,-6 -138,-15 -203,-27 -65,-12 -129,-27 -192,-45 -63,-17 -132,-40 -206,-68 8,-95 24,-190 51,-287 26,-96 60,-190 102,-282 116,46 226,80 329,103 104,23 211,34 324,34 49,0 103,-4 160,-13 58,-9 112,-24 161,-47 49,-23 90,-53 124,-90 33,-37 50,-85 50,-144 0,-85 -26,-145 -77,-182 -51,-37 -122,-69 -213,-97l-326 -95zm-3702 -1537c126,-21 251,-32 374,-32 122,0 247,11 373,32l0 1442c0,144 12,262 35,355 22,93 58,167 105,221 47,55 106,94 176,116 70,23 153,35 248,35 129,0 238,-13 326,-37l0 -2132c126,-21 249,-32 368,-32 123,0 248,11 374,32l0 2616c-112,39 -261,76 -445,113 -184,37 -376,55 -576,55 -179,0 -351,-14 -516,-42 -165,-28 -310,-87 -434,-179 -125,-91 -224,-224 -298,-400 -73,-175 -110,-409 -110,-700l0 -1463z"/>
 </g>
</svg>
