<?xml version="1.0" encoding="UTF-8"?>
<!DOCTYPE svg PUBLIC "-//W3C//DTD SVG 1.1//EN" "http://www.w3.org/Graphics/SVG/1.1/DTD/svg11.dtd">
<!-- Creator: CorelDRAW X7 -->
<svg xmlns="http://www.w3.org/2000/svg" xml:space="preserve" width="512px" height="512px" version="1.1" style="shape-rendering:geometricPrecision; text-rendering:geometricPrecision; image-rendering:optimizeQuality; fill-rule:evenodd; clip-rule:evenodd"
viewBox="0 0 51200 51200"
 xmlns:xlink="http://www.w3.org/1999/xlink">
 <defs>
  <style type="text/css">
   <![CDATA[
    .fil1 {fill:#FEFEFE}
    .fil0 {fill:url(#id0)}
   ]]>
  </style>
  <linearGradient id="id0" gradientUnits="userSpaceOnUse" x1="47032.7" y1="41102.8" x2="4167.06" y2="10096.9">
   <stop offset="0" style="stop-opacity:1; stop-color:#EE3B37"/>
   <stop offset="1" style="stop-opacity:1; stop-color:#FBD925"/>
  </linearGradient>
 </defs>
 <g id="Layer_x0020_1">
  <metadata id="CorelCorpID_0Corel-Layer"/>
  <rect class="fil0" width="51200" height="51200" rx="10391" ry="10391"/>
  <path class="fil1" d="M17359 13294l7393 0c4490,-5341 12396,-6458 18220,-2380 6159,4312 7655,12800 3343,18959 -3778,5395 -10760,7213 -16573,4682l1705 -2435c4459,1651 9640,170 12496,-3908 3395,-4848 2216,-11531 -2632,-14926 -4849,-3395 -11532,-2217 -14927,2632 -2855,4078 -2475,9453 602,13078l-1705 2435c-499,-525 -950,-1084 -1351,-1671l-9797 0c-647,0 -1176,-529 -1176,-1176l0 0c0,-647 529,-1176 1176,-1176l8508 0 834 0c647,0 1177,-529 1177,-1176l0 0c0,-647 -530,-1176 -1177,-1176l-1592 0 -11 -48c-105,31 -216,48 -332,48l-4807 0c-647,0 -1176,-530 -1176,-1176l0 -1c0,-646 529,-1176 1176,-1176l4807 0 25 1 0 -1 163 0c647,0 1176,-529 1176,-1176l0 0c0,-647 -529,-1176 -1176,-1176l-72 0 -2252 0c-647,0 -1176,-529 -1176,-1176l0 0c0,-647 529,-1176 1176,-1176l2764 0 268 0 534 0c647,0 1177,-530 1177,-1177l0 0c0,-585 -435,-1075 -997,-1162l8 -14 -5799 0c-647,0 -1176,-529 -1176,-1176l0 0c0,-647 529,-1176 1176,-1176zm23402 777c4415,3091 5488,9177 2397,13591 -3092,4416 -9177,5489 -13592,2397 -4416,-3092 -5488,-9176 -2397,-13592 1960,-2798 5121,-4253 8298,-4157l0 1663c-2654,-97 -5300,1111 -6937,3448 -2564,3662 -1674,8712 1989,11277 3663,2565 8712,1675 11277,-1989 2565,-3663 1675,-8712 -1988,-11277 -427,-299 -874,-551 -1333,-757l-1 789 -12 7262c-48,607 -254,1120 -541,1554 -398,603 -1115,1180 -1815,1383 -2268,659 -4533,-973 -4369,-3597 114,-802 467,-1556 1030,-2083 526,-423 772,-623 1476,-806 383,-100 763,-142 1200,-100 339,34 682,126 997,257 224,94 375,196 529,299l0 -5463 0 -753 0 -945c1324,248 2617,776 3792,1599zm-32681 13337l3021 0c647,0 1176,529 1176,1176l0 0c0,647 -529,1176 -1176,1176l-3021 0c-647,0 -1176,-529 -1176,-1176l0 0c0,-647 529,-1176 1176,-1176zm2626 -4705l3022 0c647,0 1176,530 1176,1176l0 1c0,646 -529,1176 -1176,1176l-3022 0c-647,0 -1176,-530 -1176,-1176l0 -1c0,-646 529,-1176 1176,-1176zm-7108 0l3889 0c646,0 1176,530 1176,1176l0 1c0,646 -530,1176 -1176,1176l-3889 0c-647,0 -1176,-530 -1176,-1176l0 -1c0,-646 529,-1176 1176,-1176zm27266 9445l-2 3 -2 4 -3 3 -6136 8763 0 0 -776 1108c-3,4 -11,5 -16,1 -596,852 -1904,964 -2922,252 -1017,-712 -1358,-1980 -762,-2832 -6,-4 -8,-11 -4,-16l776 -1108 6135 -8762 5 -7 5 -6 5 -7 136 -194c1028,1109 2288,2000 3702,2596l-141 202zm-15767 -14149l1137 0c647,0 1176,529 1176,1176l0 0c0,647 -529,1176 -1176,1176l-1137 0c-647,0 -1176,-529 -1176,-1176l0 0c0,-647 529,-1176 1176,-1176zm-6436 0l3379 0c647,0 1176,529 1176,1176l0 0c0,647 -529,1176 -1176,1176l-3379 0c-647,0 -1176,-529 -1176,-1176l0 0c0,-647 529,-1176 1176,-1176zm2864 -4705l2663 0c647,0 1176,529 1176,1176l0 0c0,647 -529,1176 -1176,1176l-2663 0c-647,0 -1176,-529 -1176,-1176l0 0c0,-647 529,-1176 1176,-1176z"/>
 </g>
</svg>
