<?xml version="1.0" encoding="UTF-8"?>
<!DOCTYPE svg PUBLIC "-//W3C//DTD SVG 1.1//EN" "http://www.w3.org/Graphics/SVG/1.1/DTD/svg11.dtd">
<!-- Creator: CorelDRAW X7 -->
<svg xmlns="http://www.w3.org/2000/svg" xml:space="preserve" width="72px" height="53px" version="1.1" style="shape-rendering:geometricPrecision; text-rendering:geometricPrecision; image-rendering:optimizeQuality; fill-rule:evenodd; clip-rule:evenodd"
viewBox="0 0 7200 5300"
 xmlns:xlink="http://www.w3.org/1999/xlink">
 <defs>
  <style type="text/css">
   <![CDATA[
    .fil0 {fill:url(#id0)}
   ]]>
  </style>
  <linearGradient id="id0" gradientUnits="userSpaceOnUse" x1="2562.4" y1="1279.49" x2="4637.36" y2="4020.35">
   <stop offset="0" style="stop-opacity:1; stop-color:#FEBF2C"/>
   <stop offset="1" style="stop-opacity:1; stop-color:#E64438"/>
  </linearGradient>
 </defs>
 <g id="Layer_x0020_1">
  <metadata id="CorelCorpID_0Corel-Layer"/>
  <path class="fil0" d="M2320 738l1148 0c698,-829 1926,-1003 2830,-369 957,669 1189,1988 520,2945 -587,838 -1672,1120 -2575,727l265 -378c693,256 1498,26 1941,-607 528,-754 344,-1792 -409,-2319 -753,-527 -1791,-344 -2318,409 -444,633 -385,1468 93,2031l-265 379c-77,-82 -147,-169 -209,-260l-1522 0c-101,0 -183,-82 -183,-183l0 0c0,-100 82,-182 183,-182l1321 0 130 0c100,0 183,-83 183,-183l0 0c0,-100 -83,-183 -183,-183l-247 0 -2 -7c-17,5 -34,7 -52,7l-746 0c-101,0 -183,-82 -183,-182l0 0c0,-101 82,-183 183,-183l746 0 4 0 0 0 25 0c101,0 183,-82 183,-183l0 0c0,-100 -82,-183 -183,-183l-11 0 -349 0c-101,0 -183,-82 -183,-182l0 0c0,-101 82,-183 183,-183l429 0 41 0 83 0c101,0 183,-82 183,-183l0 0c0,-91 -67,-167 -155,-180l2 -2 -901 0c-101,0 -183,-82 -183,-183l0 0c0,-100 82,-183 183,-183zm3635 121c686,480 852,1425 372,2111 -480,686 -1425,853 -2111,373 -686,-481 -853,-1426 -372,-2112 304,-434 795,-660 1289,-646l0 259c-413,-15 -824,172 -1078,535 -398,569 -260,1354 309,1752 569,398 1353,260 1752,-309 398,-569 260,-1353 -309,-1752 -66,-46 -136,-85 -207,-117l0 122 -2 1128c-8,95 -40,174 -84,242 -62,94 -174,183 -282,215 -353,102 -704,-151 -679,-559 18,-125 73,-242 160,-324 82,-65 120,-97 229,-125 60,-15 119,-22 187,-15 52,5 106,19 155,40 35,14 58,30 82,46l0 -849 0 -117 0 -146c206,38 406,120 589,248zm-5077 2072l470 0c100,0 182,82 182,182l0 0c0,101 -82,183 -182,183l-470 0c-100,0 -182,-82 -182,-183l0 0c0,-100 82,-182 182,-182zm408 -731l470 0c100,0 182,82 182,183l0 0c0,100 -82,182 -182,182l-470 0c-100,0 -182,-82 -182,-182l0 0c0,-101 82,-183 182,-183zm-1104 0l604 0c101,0 183,82 183,183l0 0c0,100 -82,182 -183,182l-604 0c-100,0 -182,-82 -182,-182l0 0c0,-101 82,-183 182,-183zm4236 1467l-1 0 0 1 -1 1 -953 1361 0 0 -120 172c-1,1 -2,1 -3,0 -92,132 -295,150 -454,39 -158,-111 -211,-308 -118,-440 -1,0 -1,-1 -1,-2l121 -172 953 -1361 1 -2 0 0 1 -2 21 -30c160,173 356,311 576,404l-22 31zm-2450 -2198l177 0c101,0 183,82 183,183l0 0c0,100 -82,182 -183,182l-177 0c-100,0 -182,-82 -182,-182l0 0c0,-101 82,-183 182,-183zm-999 0l525 0c100,0 182,82 182,183l0 0c0,100 -82,182 -182,182l-525 0c-101,0 -183,-82 -183,-182l0 0c0,-101 82,-183 183,-183zm445 -731l413 0c101,0 183,83 183,183l0 0c0,101 -82,183 -183,183l-413 0c-101,0 -183,-82 -183,-183l0 0c0,-100 82,-183 183,-183z"/>
 </g>
</svg>
