<?xml version="1.0" encoding="UTF-8"?>
<!DOCTYPE svg PUBLIC "-//W3C//DTD SVG 1.1//EN" "http://www.w3.org/Graphics/SVG/1.1/DTD/svg11.dtd">
<!-- Creator: CorelDRAW X7 -->
<svg xmlns="http://www.w3.org/2000/svg" xml:space="preserve" width="72px" height="72px" version="1.1" style="shape-rendering:geometricPrecision; text-rendering:geometricPrecision; image-rendering:optimizeQuality; fill-rule:evenodd; clip-rule:evenodd"
viewBox="0 0 7200 7200"
 xmlns:xlink="http://www.w3.org/1999/xlink">
 <defs>
  <style type="text/css">
   <![CDATA[
    .fil1 {fill:#FEFEFE}
    .fil0 {fill:url(#id0)}
   ]]>
  </style>
  <linearGradient id="id0" gradientUnits="userSpaceOnUse" x1="6614.15" y1="5780.15" x2="585.964" y2="1419.85">
   <stop offset="0" style="stop-opacity:1; stop-color:#EE3B37"/>
   <stop offset="1" style="stop-opacity:1; stop-color:#FBD925"/>
  </linearGradient>
 </defs>
 <g id="Layer_x0020_1">
  <metadata id="CorelCorpID_0Corel-Layer"/>
  <g id="_280451864">
   <rect class="fil0" width="7200" height="7200" rx="1461" ry="1461"/>
   <path class="fil1" d="M2441 1869l1040 0c631,-751 1743,-908 2562,-334 866,606 1077,1800 470,2666 -531,759 -1513,1014 -2331,658l240 -342c627,232 1356,24 1757,-550 478,-681 312,-1621 -370,-2099 -681,-477 -1621,-311 -2099,370 -401,574 -348,1330 85,1840l-240 342c-70,-74 -133,-152 -190,-235l-1378 0c-91,0 -165,-74 -165,-165l0 0c0,-91 74,-166 165,-166l1197 0 117 0 4 0c89,-2 162,-76 162,-165l0 0c0,-91 -75,-166 -166,-166l-224 0 -1 -6c-15,4 -31,6 -47,6l-676 0c-91,0 -165,-74 -165,-165l0 0c0,-91 74,-165 165,-165l676 0 7 0 19 0c91,0 166,-75 166,-166l0 0c0,-89 -71,-162 -159,-165l-333 0c-91,0 -166,-75 -166,-165l0 -1c0,-91 75,-165 166,-165l388 0 38 0 4 0 71 0c91,0 166,-74 166,-165l0 0c0,-83 -61,-152 -141,-164l1 -2 -815 0c-91,0 -165,-74 -165,-165l0 0c0,-91 74,-166 165,-166zm3291 110c621,434 772,1290 337,1911 -435,621 -1290,772 -1911,337 -621,-435 -772,-1290 -337,-1911 275,-394 720,-598 1167,-585l0 234c-374,-14 -746,156 -976,485 -361,515 -235,1225 280,1586 515,360 1225,235 1586,-280 360,-515 235,-1225 -280,-1586 -60,-42 -123,-77 -187,-106l-1 111 -1 1021c-7,85 -36,157 -76,218 -56,85 -157,166 -256,195 -319,92 -637,-137 -614,-506 16,-113 66,-219 145,-293 74,-59 108,-88 208,-113 53,-14 107,-20 168,-14 48,4 96,17 140,36 32,13 53,27 75,42l0 -768 0 -106 0 -133c186,35 368,109 533,225zm-4596 1875l425 0c91,0 165,75 165,166l0 0c0,91 -74,165 -165,165l-425 0c-91,0 -165,-74 -165,-165l0 0c0,-91 74,-166 165,-166zm369 -661l425 0c91,0 166,74 166,165l0 0c0,91 -75,165 -166,165l-425 0c-90,0 -165,-74 -165,-165l0 0c0,-91 75,-165 165,-165zm-999 0l547 0c91,0 165,74 165,165l0 0c0,91 -74,165 -165,165l-547 0c-91,0 -165,-74 -165,-165l0 0c0,-91 74,-165 165,-165zm3834 1328l0 0 0 1 -1 0 -863 1233 0 0 -109 155c0,1 -1,1 -2,1 -84,119 -268,135 -411,35 -143,-100 -191,-279 -107,-398 -1,-1 -1,-2 -1,-2l109 -156 863 -1233 1 0 1 -2 0 0 19 -28c145,156 322,282 521,365l-20 29zm-2217 -1990l160 0c91,0 165,74 165,165l0 1c0,90 -74,165 -165,165l-160 0c-91,0 -165,-75 -165,-165l0 -1c0,-91 74,-165 165,-165zm-905 0l475 0c91,0 166,74 166,165l0 1c0,90 -75,165 -166,165l-475 0c-91,0 -165,-75 -165,-165l0 -1c0,-91 74,-165 165,-165zm403 -662l374 0c91,0 166,75 166,166l0 0c0,91 -75,165 -166,165l-374 0c-91,0 -166,-74 -166,-165l0 0c0,-91 75,-166 166,-166z"/>
  </g>
 </g>
</svg>
