<?xml version="1.0" encoding="UTF-8"?>
<!DOCTYPE svg PUBLIC "-//W3C//DTD SVG 1.1//EN" "http://www.w3.org/Graphics/SVG/1.1/DTD/svg11.dtd">
<!-- Creator: CorelDRAW X7 -->
<svg xmlns="http://www.w3.org/2000/svg" xml:space="preserve" width="96px" height="71px" version="1.1" style="shape-rendering:geometricPrecision; text-rendering:geometricPrecision; image-rendering:optimizeQuality; fill-rule:evenodd; clip-rule:evenodd"
viewBox="0 0 9600 7100"
 xmlns:xlink="http://www.w3.org/1999/xlink">
 <defs>
  <style type="text/css">
   <![CDATA[
    .fil0 {fill:url(#id0)}
   ]]>
  </style>
  <linearGradient id="id0" gradientUnits="userSpaceOnUse" x1="3410.2" y1="1714.37" x2="6189.45" y2="5385.35">
   <stop offset="0" style="stop-opacity:1; stop-color:#FEBF2C"/>
   <stop offset="1" style="stop-opacity:1; stop-color:#E64438"/>
  </linearGradient>
 </defs>
 <g id="Layer_x0020_1">
  <metadata id="CorelCorpID_0Corel-Layer"/>
  <path class="fil0" d="M3085 990l1539 0c933,-1112 2578,-1344 3790,-496 1281,897 1593,2664 696,3945 -786,1122 -2239,1501 -3448,974l354 -507c928,344 2006,36 2600,-813 706,-1008 461,-2399 -548,-3105 -1008,-707 -2399,-461 -3105,547 -594,849 -515,1967 125,2721l-354 507c-104,-109 -198,-226 -282,-348l-2038 0c-134,0 -245,-110 -245,-244l0 0c0,-135 111,-245 245,-245l1770 0 174 0c134,0 245,-110 245,-245l0 0c0,-134 -111,-244 -245,-244l-332 0 -2 -10c-22,6 -45,10 -69,10l-1000 0c-135,0 -245,-110 -245,-245l0 0c0,-135 110,-245 245,-245l1000 0 5 0 0 0 34 0c135,0 245,-110 245,-245l0 0c0,-134 -110,-244 -245,-244l-15 0 -468 0c-135,0 -245,-110 -245,-245l0 0c0,-135 110,-245 245,-245l575 0 56 0 111 0c134,0 245,-110 245,-244l0 0c0,-122 -91,-224 -208,-242l2 -3 -1207 0c-134,0 -244,-110 -244,-245l0 0c0,-134 110,-244 244,-244zm4869 161c919,643 1142,1909 499,2828 -643,919 -1910,1142 -2828,499 -919,-644 -1142,-1910 -499,-2828 408,-582 1066,-885 1727,-865l0 346c-552,-20 -1103,231 -1443,717 -534,762 -349,1813 413,2346 762,534 1813,349 2346,-413 534,-763 349,-1813 -413,-2347 -89,-62 -182,-114 -277,-157l-1 164 -2 1511c-10,126 -53,233 -113,323 -82,126 -232,246 -377,288 -472,137 -943,-202 -909,-748 23,-167 97,-324 214,-434 109,-88 161,-129 307,-167 80,-21 159,-30 250,-21 70,7 142,26 207,53 47,20 78,41 110,62l0 -1136 0 -157 0 -197c276,52 545,162 789,333zm-6799 2775l628 0c135,0 245,110 245,245l0 0c0,134 -110,244 -245,244l-628 0c-135,0 -245,-110 -245,-244l0 0c0,-135 110,-245 245,-245zm546 -979l629 0c134,0 245,110 245,245l0 0c0,135 -111,245 -245,245l-629 0c-134,0 -244,-110 -244,-245l0 0c0,-135 110,-245 244,-245zm-1479 0l809 0c135,0 245,110 245,245l0 0c0,135 -110,245 -245,245l-809 0c-134,0 -244,-110 -244,-245l0 0c0,-135 110,-245 244,-245zm5673 1965l0 1 -1 1 0 0 -1277 1823 0 0 -161 231c-1,1 -3,1 -4,0 -124,177 -396,201 -608,52 -211,-148 -282,-411 -158,-589 -1,0 -2,-2 -1,-3l161 -230 1277 -1824 1 -1 1 -1 1 -2 28 -40c214,231 476,416 770,540l-29 42zm-3280 -2944l236 0c135,0 245,110 245,245l0 0c0,135 -110,245 -245,245l-236 0c-135,0 -245,-110 -245,-245l0 0c0,-135 110,-245 245,-245zm-1339 0l703 0c134,0 244,110 244,245l0 0c0,135 -110,245 -244,245l-703 0c-135,0 -245,-110 -245,-245l0 0c0,-135 110,-245 245,-245zm596 -978l554 0c134,0 244,110 244,244l0 0c0,135 -110,245 -244,245l-554 0c-135,0 -245,-110 -245,-245l0 0c0,-134 110,-244 245,-244z"/>
 </g>
</svg>
