<?xml version="1.0" encoding="UTF-8"?>
<!DOCTYPE svg PUBLIC "-//W3C//DTD SVG 1.1//EN" "http://www.w3.org/Graphics/SVG/1.1/DTD/svg11.dtd">
<!-- Creator: CorelDRAW X7 -->
<svg xmlns="http://www.w3.org/2000/svg" xml:space="preserve" width="96px" height="96px" version="1.1" style="shape-rendering:geometricPrecision; text-rendering:geometricPrecision; image-rendering:optimizeQuality; fill-rule:evenodd; clip-rule:evenodd"
viewBox="0 0 9600 9600"
 xmlns:xlink="http://www.w3.org/1999/xlink">
 <defs>
  <style type="text/css">
   <![CDATA[
    .fil1 {fill:#FEFEFE}
    .fil0 {fill:url(#id0)}
   ]]>
  </style>
  <linearGradient id="id0" gradientUnits="userSpaceOnUse" x1="8818.8" y1="7706.88" x2="781.318" y2="1893.12">
   <stop offset="0" style="stop-opacity:1; stop-color:#EE3B37"/>
   <stop offset="1" style="stop-opacity:1; stop-color:#FBD925"/>
  </linearGradient>
 </defs>
 <g id="Layer_x0020_1">
  <metadata id="CorelCorpID_0Corel-Layer"/>
  <g id="_277017544">
   <rect class="fil0" width="9600" height="9600" rx="1948" ry="1948"/>
   <path class="fil1" d="M3255 2493l1386 0c842,-1002 2324,-1211 3416,-447 1155,809 1436,2400 627,3555 -708,1012 -2017,1353 -3107,878l319 -457c836,310 1808,32 2343,-732 637,-909 416,-2162 -493,-2799 -909,-637 -2162,-416 -2799,493 -535,765 -464,1773 113,2453l-320 456c-93,-98 -178,-203 -253,-313l-1837 0c-121,0 -221,-99 -221,-220l0 0c0,-122 100,-221 221,-221l1757 0c119,-3 215,-101 215,-221l0 0c0,-121 -99,-220 -220,-220l-299 0 -2 -9c-20,6 -41,9 -62,9l-902 0c-121,0 -220,-99 -220,-221l0 0c0,-121 99,-220 220,-220l902 0 4 0 0 0 31 0c121,0 220,-99 220,-221l0 0c0,-121 -99,-220 -220,-220l-14 0 -422 0c-121,0 -220,-99 -220,-221l0 0c0,-121 99,-220 220,-220l518 0 51 0 100 0c121,0 221,-99 221,-221l0 0c0,-110 -82,-201 -187,-218l1 -2 -1087 0c-122,0 -221,-100 -221,-221l0 0c0,-121 99,-220 221,-220zm4388 145c828,580 1029,1721 449,2549 -580,828 -1721,1029 -2548,449 -828,-580 -1029,-1721 -450,-2549 368,-524 960,-797 1556,-779l0 312c-497,-18 -994,208 -1301,646 -480,687 -314,1634 373,2115 687,481 1634,314 2115,-373 481,-687 314,-1634 -373,-2114 -80,-57 -164,-104 -250,-143l0 148 -2 1362c-9,114 -48,210 -102,292 -74,113 -209,221 -340,259 -425,123 -850,-183 -819,-675 21,-150 87,-291 193,-390 99,-79 144,-117 277,-151 71,-19 143,-27 225,-19 63,6 128,23 186,48 43,18 71,37 100,56l0 -1024 0 -141 0 -178c248,47 490,146 711,300zm-6128 2501l567 0c121,0 220,99 220,221l0 0c0,121 -99,220 -220,220l-567 0c-121,0 -221,-99 -221,-220l0 0c0,-122 100,-221 221,-221zm492 -882l567 0c121,0 220,99 220,220l0 0c0,122 -99,221 -220,221l-567 0c-121,0 -220,-99 -220,-221l0 0c0,-121 99,-220 220,-220zm-1332 0l729 0c121,0 220,99 220,220l0 0c0,122 -99,221 -220,221l-729 0c-122,0 -221,-99 -221,-221l0 0c0,-121 99,-220 221,-220zm5112 1771l0 0 -1 1 0 1 -1151 1643 0 0 -145 207c-1,1 -2,1 -3,1 -112,159 -357,180 -548,47 -191,-134 -255,-371 -143,-531 -1,-1 -1,-2 -1,-3l146 -208 1150 -1643 1 -1 1 -1 1 -1 25 -37c193,208 429,375 695,487l-27 38zm-2956 -2653l213 0c121,0 220,99 220,220l0 0c0,122 -99,221 -220,221l-213 0c-122,0 -221,-99 -221,-221l0 0c0,-121 99,-220 221,-220zm-1207 0l634 0c121,0 220,99 220,220l0 0c0,122 -99,221 -220,221l-634 0c-121,0 -221,-99 -221,-221l0 0c0,-121 100,-220 221,-220zm537 -882l499 0c122,0 221,99 221,220l0 0c0,121 -99,221 -221,221l-499 0c-121,0 -221,-100 -221,-221l0 0c0,-121 100,-220 221,-220z"/>
  </g>
 </g>
</svg>
