<?xml version="1.0" encoding="UTF-8"?>
<!DOCTYPE svg PUBLIC "-//W3C//DTD SVG 1.1//EN" "http://www.w3.org/Graphics/SVG/1.1/DTD/svg11.dtd">
<!-- Creator: CorelDRAW X7 -->
<svg xmlns="http://www.w3.org/2000/svg" xml:space="preserve" width="512px" height="379px" version="1.1" style="shape-rendering:geometricPrecision; text-rendering:geometricPrecision; image-rendering:optimizeQuality; fill-rule:evenodd; clip-rule:evenodd"
viewBox="0 0 51200 37900"
 xmlns:xlink="http://www.w3.org/1999/xlink">
 <defs>
  <style type="text/css">
   <![CDATA[
    .fil0 {fill:#373435}
   ]]>
  </style>
 </defs>
 <g id="Layer_x0020_1">
  <metadata id="CorelCorpID_0Corel-Layer"/>
  <path class="fil0" d="M16490 5346l8173 0c4962,-5904 13702,-7139 20140,-2631 6808,4767 8462,14150 3696,20958 -4176,5964 -11894,7973 -18320,5175l1884 -2691c4930,1825 10657,188 13813,-4320 3753,-5360 2450,-12747 -2909,-16500 -5360,-3753 -12748,-2450 -16500,2910 -3157,4507 -2737,10449 665,14457l-1885 2691c-551,-581 -1049,-1198 -1493,-1846l-10830 0c-715,0 -1300,-585 -1300,-1300l0 -1c0,-715 585,-1300 1300,-1300l9405 0 922 0c716,0 1301,-585 1301,-1300l0 0c0,-715 -585,-1300 -1301,-1300l-1760 0 -11 -53c-117,34 -240,53 -367,53l-5315 0c-715,0 -1300,-585 -1300,-1300l0 0c0,-716 585,-1300 1300,-1300l5315 0 26 0 0 0 181 0c715,0 1300,-586 1300,-1300l0 -1c0,-715 -585,-1300 -1300,-1300l-80 0 -2489 0c-715,0 -1300,-584 -1300,-1300l0 0c0,-716 585,-1300 1300,-1300l3055 0 297 0 590 0c715,0 1300,-585 1300,-1300l0 0c0,-648 -479,-1189 -1101,-1285l8 -15 -6410 0c-715,0 -1300,-585 -1300,-1300l0 -1c0,-715 585,-1300 1300,-1300zm25869 859c4881,3417 6066,10144 2649,15024 -3417,4881 -10144,6067 -15024,2650 -4881,-3418 -6067,-10144 -2649,-15025 2165,-3093 5660,-4702 9172,-4596l0 1839c-2933,-107 -5859,1228 -7668,3811 -2834,4049 -1851,9631 2198,12466 4050,2835 9631,1851 12466,-2198 2836,-4050 1851,-9631 -2197,-12466 -473,-331 -966,-610 -1474,-837l-1 872 -12 8027c-55,671 -282,1238 -600,1719 -439,666 -1232,1304 -2005,1528 -2508,728 -5011,-1075 -4830,-3976 126,-886 516,-1720 1138,-2302 582,-468 853,-690 1632,-891 424,-111 844,-158 1326,-111 375,37 754,139 1102,284 249,104 416,217 586,330l0 -6038 0 -833 0 -1045c1463,275 2892,858 4191,1768zm-36126 14743l3340 0c715,0 1300,585 1300,1300l0 1c0,715 -585,1300 -1300,1300l-3340 0c-715,0 -1300,-585 -1300,-1300l0 -1c0,-715 585,-1300 1300,-1300zm2903 -5200l3340 0c716,0 1301,584 1301,1300l0 0c0,715 -585,1300 -1301,1300l-3340 0c-715,0 -1300,-585 -1300,-1300l0 0c0,-716 585,-1300 1300,-1300zm-7857 0l4299 0c715,0 1300,584 1300,1300l0 0c0,715 -585,1300 -1300,1300l-4299 0c-715,0 -1300,-585 -1300,-1300l0 0c0,-716 585,-1300 1300,-1300zm30140 10440l-2 3 -3 4 -3 4 -6782 9686 -1 0 -857 1225c-4,5 -12,5 -18,2 -659,941 -2105,1065 -3230,278 -1124,-788 -1502,-2189 -842,-3130 -7,-5 -9,-13 -5,-18l858 -1225 6782 -9686 5 -7 6 -8 5 -7 150 -215c1137,1226 2529,2211 4093,2871l-156 223zm-17429 -15641l1257 0c715,0 1300,584 1300,1300l0 0c0,716 -585,1300 -1300,1300l-1257 0c-716,0 -1300,-584 -1300,-1300l0 0c0,-716 584,-1300 1300,-1300zm-7115 0l3736 0c715,0 1300,584 1300,1300l0 0c0,716 -585,1300 -1300,1300l-3736 0c-715,0 -1300,-584 -1300,-1300l0 0c0,-716 585,-1300 1300,-1300zm3166 -5201l2944 0c715,0 1300,585 1300,1300l0 1c0,715 -585,1300 -1300,1300l-2944 0c-715,0 -1300,-585 -1300,-1300l0 -1c0,-715 585,-1300 1300,-1300z"/>
 </g>
</svg>
